<svg xmlns="http://www.w3.org/2000/svg" width="60" height="60" viewBox="0 0 60 60"><g><g><g><path fill="#fe3e57" d="M0 0h60v60H0z"/></g><g><path fill="#fff" d="M42.384 29.676c.776.7.82 1.717.11 2.533l-4.148 4.765c-.19.22-.41.415-.652.579l-.017.01c-.676.422-1.525.636-2.526.636h-6.156c-.424 0-.852.023-1.274.072l-.696.076.304.289a.497.497 0 0 1 .156.35.497.497 0 0 1-.146.36l-3.493 3.5a.517.517 0 0 1-.72.013l-5.965-5.546a.493.493 0 0 1-.015-.708l3.527-3.576a.522.522 0 0 1 .366-.153h.004a.52.52 0 0 1 .358.142l.725.688a7.253 7.253 0 0 1 1.322-1.387c1.484-1.182 3.24-1.545 5.078-1.048.705.19 1.449.286 2.212.286h4.046c.589 0 1.109.227 1.464.64.073.084.139.175.196.271l2.89-2.792a2.109 2.109 0 0 1 1.597-.594 2.387 2.387 0 0 1 1.453.594zm-16.133 9.33l-5.196-4.924-2.816 2.854 5.227 4.86zm15.464-7.444c.48-.55.19-.958-.024-1.15-.416-.376-1.16-.492-1.635-.028l-3.33 3.217c-.014.48-.183.93-.481 1.272-.358.41-.882.638-1.477.638h-3.522a.506.506 0 0 1-.512-.5c0-.275.23-.499.512-.499h3.522c.298 0 .532-.096.697-.286.153-.174.24-.427.24-.693 0-.362-.194-.977-.92-.977h-4.047a9.536 9.536 0 0 1-2.485-.323c-1.526-.413-2.925-.123-4.158.86a6.285 6.285 0 0 0-1.225 1.316l3.205 3.037 1.53-.168c.459-.052.927-.078 1.39-.078h6.156c.798 0 1.46-.159 1.967-.472a2.38 2.38 0 0 0 .449-.4zm-12.06 3.337a.499.499 0 0 1-.38.6.51.51 0 0 1-.615-.372l-.005-.02a.498.498 0 0 1 .382-.6.511.511 0 0 1 .614.372zm-9.196-6.366c-.682 0-1.238-.542-1.238-1.209v-2.268c0-1.02.584-1.905 1.459-2.341a2.826 2.826 0 0 1-.68-1.837c0-1.587 1.324-2.88 2.95-2.88 1.627 0 2.95 1.293 2.95 2.88 0 .698-.255 1.338-.678 1.836.377.19.7.462.947.793.245-.33.569-.604.947-.792a2.827 2.827 0 0 1-.679-1.837c0-1.587 1.323-2.88 2.95-2.88 1.626 0 2.95 1.293 2.95 2.88 0 .698-.255 1.338-.68 1.836.379.189.702.462.948.793.246-.33.57-.604.947-.793a2.824 2.824 0 0 1-.678-1.836c0-1.587 1.323-2.88 2.95-2.88 1.626 0 2.95 1.293 2.95 2.88 0 .698-.256 1.338-.68 1.836a2.612 2.612 0 0 1 1.459 2.341v2.269c0 .667-.556 1.209-1.238 1.209h-4.983c-.271 0-.523-.085-.727-.232a1.243 1.243 0 0 1-.726.232h-4.983c-.272 0-.523-.085-.727-.232a1.244 1.244 0 0 1-.727.232zm15.364-9.536c-1.062 0-1.927.844-1.927 1.881 0 1.038.865 1.882 1.927 1.882 1.063 0 1.927-.844 1.927-1.882 0-1.037-.864-1.881-1.927-1.881zm-1.328 4.452a1.634 1.634 0 0 0-1.378 1.606v2.269c0 .116.096.21.215.21h4.983a.213.213 0 0 0 .215-.21v-2.269c0-.802-.584-1.47-1.378-1.606a2.992 2.992 0 0 1-2.657 0zm-5.108-4.452c-1.063 0-1.927.844-1.927 1.881 0 1.038.864 1.882 1.927 1.882 1.063 0 1.927-.844 1.927-1.882 0-1.037-.864-1.881-1.927-1.881zm-1.328 4.452a1.634 1.634 0 0 0-1.379 1.606v2.269c0 .116.097.21.216.21h4.983a.213.213 0 0 0 .215-.21v-2.269c0-.802-.584-1.47-1.379-1.606a2.994 2.994 0 0 1-2.656 0zm-5.108-4.452c-1.063 0-1.927.844-1.927 1.881 0 1.038.864 1.882 1.927 1.882 1.062 0 1.927-.844 1.927-1.882 0-1.037-.865-1.881-1.927-1.881zm-2.707 8.327c0 .116.096.21.215.21h4.983a.213.213 0 0 0 .216-.21v-2.269c0-.802-.584-1.47-1.379-1.606a2.993 2.993 0 0 1-2.657 0 1.634 1.634 0 0 0-1.378 1.606z"/></g></g></g></svg>