<svg xmlns="http://www.w3.org/2000/svg" width="60" height="60" viewBox="0 0 60 60"><g><g><g><path fill="#ffb534" d="M0 0h60v60H0z"/></g><g><path fill="#fff" d="M49.999 31.82v6.602c0 .341-.28.619-.626.619h-2.048l.002.041c0 2.161-1.78 3.92-3.967 3.92-2.188 0-3.967-1.759-3.967-3.92l.001-.041H25.278l.001.041c0 2.161-1.78 3.92-3.966 3.92-2.188 0-3.967-1.759-3.967-3.92v-.041h-3.382a1.288 1.288 0 0 1-1.295-1.28V36.4h-2.046a.622.622 0 0 1-.626-.62c0-.34.28-.618.626-.618h6.013c.346 0 .626.277.626.619 0 .342-.28.619-.626.619h-2.714v1.361c0 .024.019.042.042.042h3.6a3.97 3.97 0 0 1 3.749-2.641 3.97 3.97 0 0 1 3.748 2.64h12.996V33.14c0-.341.28-.618.626-.618s.627.277.627.618v4.663h.301a3.97 3.97 0 0 1 3.749-2.64 3.97 3.97 0 0 1 3.749 2.64h1.637V35.08h-.71c-1.082 0-1.962-.87-1.962-1.94v-1.32c0-.342.28-.619.626-.619h1.948a2.048 2.048 0 0 0-1.946-1.403H46.7h-7.39v.702c0 .342-.281.62-.627.62a.623.623 0 0 1-.626-.62V19.277a.042.042 0 0 0-.042-.041H13.964a.042.042 0 0 0-.042.041V30.5c0 .343-.28.62-.626.62a.622.622 0 0 1-.627-.62V19.277c0-.705.58-1.279 1.295-1.279h24.051c.714 0 1.294.574 1.294 1.28v1.36h4.719c1.45 0 2.63 1.167 2.63 2.6v.66a.622.622 0 0 1-.495.606l1.036 4.093c1.583.239 2.8 1.593 2.8 3.223zm-10.69-3.259h6.59l-1.024-4.044H39.31zm0-6.684v1.402h6.097v-.04c0-.752-.618-1.362-1.378-1.362zM24.027 39.082c0-1.48-1.218-2.682-2.714-2.682-1.497 0-2.714 1.203-2.714 2.682 0 1.48 1.217 2.681 2.714 2.681 1.496 0 2.714-1.202 2.714-2.68zm22.047 0c0-1.48-1.218-2.682-2.714-2.682-1.497 0-2.714 1.203-2.714 2.682 0 1.48 1.217 2.681 2.714 2.681 1.496 0 2.714-1.202 2.714-2.68zm2.672-5.24V32.44h-1.42v.701c0 .387.319.702.71.702zm-26.139 5.24c0 .705-.58 1.279-1.294 1.279a1.288 1.288 0 0 1-1.295-1.279c0-.706.58-1.28 1.295-1.28.714 0 1.294.574 1.294 1.28zm22.047 0c0 .705-.58 1.279-1.294 1.279a1.288 1.288 0 0 1-1.295-1.279c0-.706.581-1.28 1.295-1.28s1.294.574 1.294 1.28zm-17.997-3.92h9.354c.346 0 .626.277.626.619 0 .342-.28.619-.626.619h-9.354a.622.622 0 0 1-.626-.62c0-.34.28-.618.626-.618zM11.333 33.14c0-.341.28-.618.626-.618h8.018c.345 0 .626.277.626.618 0 .342-.28.62-.626.62h-8.018a.623.623 0 0 1-.626-.62zm20.444-9.02a.614.614 0 0 1 0 .876l-6.013 5.941a.627.627 0 0 1-.886 0l-3.34-3.3a.614.614 0 0 1 0-.876.631.631 0 0 1 .886 0l2.897 2.864 5.57-5.504a.632.632 0 0 1 .886 0z"/></g></g></g></svg>