<svg xmlns="http://www.w3.org/2000/svg" width="60" height="60" viewBox="0 0 60 60"><g><g><g><path fill="#34c3ff" d="M0 0h60v60H0z"/></g><g><path fill="#fff" d="M41.692 24.72l-4.233-.313.105-1.467 1.851.137a10.831 10.831 0 0 0-8.057-3.607c-6.012 0-10.904 4.947-10.904 11.028 0 6.082 4.892 11.03 10.904 11.03 3.636 0 7.021-1.83 9.058-4.896l1.207.82C39.316 40.927 35.479 43 31.358 43c-6.814 0-12.358-5.607-12.358-12.5s5.544-12.5 12.358-12.5c3.474 0 6.746 1.473 9.07 4.017l.121-1.685 1.451.107zm-18.625 6.056c.147.072.553.244.947.244.356 0 .608-.105.608-.366 0-.266-.301-.41-.624-.41h-.46v-.737h.443c.241 0 .554-.078.554-.31 0-.172-.176-.288-.51-.288-.345 0-.717.155-.86.233l-.219-.743c.252-.155.75-.299 1.31-.299.821 0 1.33.388 1.33.925 0 .388-.213.687-.695.842v.01c.444.056.816.378.816.843 0 .704-.657 1.114-1.61 1.114-.548 0-1.003-.133-1.244-.288zm4.617 1.058c-1.068 0-1.495-.88-1.495-1.867 0-.981.427-1.867 1.5-1.867 1.075 0 1.502.886 1.502 1.867 0 .986-.427 1.867-1.501 1.867zm.011-.754c.28 0 .466-.349.466-1.113 0-.765-.186-1.108-.471-1.108s-.471.343-.471 1.108c0 .764.186 1.113.47 1.113zm3.183-2.997A8.9 8.9 0 0 1 32.176 28c.778 0 1.255.116 1.66.377.433.276.734.73.734 1.413 0 .775-.318 1.246-.68 1.524-.454.348-1.139.498-1.916.498-.548 0-.893-.033-1.096-.066zm1.035 2.914c.06.012.165.012.241.012.756.011 1.31-.349 1.31-1.164 0-.742-.52-1.053-1.19-1.053a1.91 1.91 0 0 0-.36.028zm5.725.095c0 .288.016.553.044.676h-.932l-.055-.233h-.021c-.198.222-.483.299-.79.299-.591 0-.942-.415-.942-.858 0-.732.647-1.07 1.666-1.07v-.017c0-.1-.066-.221-.471-.221-.302 0-.641.116-.817.215l-.18-.653c.175-.094.575-.255 1.177-.255.926 0 1.32.471 1.32 1.202zm-.997-.554c-.455 0-.674.116-.674.337 0 .156.104.245.296.245a.4.4 0 0 0 .367-.283c.01-.045.01-.1.01-.15zm2.443-1.497l.356 1.18c.044.156.098.377.137.51h.022c.038-.144.082-.365.115-.51l.268-1.18h1.129l-.57 1.557c-.499 1.38-.794 1.774-1.09 2.018a1.69 1.69 0 0 1-.97.382l-.192-.875c.093-.006.209-.034.335-.078a.914.914 0 0 0 .35-.244.218.218 0 0 0 .055-.128.366.366 0 0 0-.044-.16l-1.057-2.472z"/></g></g></g></svg>