<svg xmlns="http://www.w3.org/2000/svg" width="1920" height="719" viewBox="0 0 1920 719"><g><g clip-path="url(#clip-423)"><path fill="#ededed" d="M58.046 42.176l-1.67-1.578 1.813 1.393 5.19-6.712L93.87 6.455 124.5 35.437l4.26 5.533 48.615-45.994h2.206l-49.89 47.2.745.962L93.87 8.543l-36.57 34.599zM8.158-5.024h2.205l46.603 44.092-.931 1.206zm85.711 80.852l-73.438 69.48-.931-1.207 74.369-70.362 74.37 70.362-.932 1.206zM79.595 221.812l14.274-13.507 14.274 13.507-.931 1.204-13.343-12.622-13.343 12.623zm-30.047-38.857l44.321-41.933 44.322 41.933-.931 1.206-43.391-41.05-43.39 41.05zm44.321-6.203L65.502 203.59l-.931-1.206 29.298-27.719 29.298 27.719-.931 1.206zm0-134.566L5.407 125.879l-.931-1.206 89.393-84.576 89.393 84.576-.933 1.206zm21.878-22.545l26.07-24.665h2.206l-27.344 25.87zM100.722.213l5.536-5.237h2.207l-6.809 6.444zm89.384 52.09L161.752 79.13l-.932-1.206 29.203-27.63.014.016.084-.081 29.271 27.695-.933 1.206zm-74.359 216.258l74.359-70.35 74.357 70.35-.932 1.205-73.425-69.467-73.427 69.467zm-15.024-19.427l89.383-84.566 89.381 84.566-.932 1.205-88.449-83.682-88.45 83.682zM-1 87.239V85.15l12.895 12.2-.933 1.207zm0-67.283v-2.09l42.941 40.63-.932 1.206zm0 33.641v-2.09l27.92 26.417-.933 1.206zm80.273-58.62h2.207L87.015.212l-.932 1.205zm-35.559 0h2.207L71.989 19.64l-.931 1.205zM-1 167.95v-2.088l88.015 83.272-.932 1.204zm0 33.642v-2.089l72.99 69.058-.932 1.205zM250.519 42.176l-1.672-1.581 1.815 1.397 5.191-6.712 30.49-28.825 30.631 28.982 4.26 5.533 48.615-45.994h2.206l-49.89 47.2.745.962-36.567-34.596-36.573 34.601zm-49.888-47.2h2.206l46.602 44.092-.932 1.206zm85.712 80.852l-73.438 69.48-.931-1.207 74.369-70.362 74.369 70.362-.933 1.206zm-14.274 145.984l14.274-13.507 14.273 13.507-.932 1.205-13.341-12.623L273 223.017zm14.274-78.702l-43.39 41.051-.933-1.206 44.323-41.933 44.322 41.933-.933 1.206zm-29.299 59.273l29.299-27.719 29.298 27.719-.932 1.205-28.366-26.836-28.367 26.837zm29.299-160.197l-88.462 83.693-.931-1.206 89.393-84.576 89.393 84.576-.933 1.206zM308.22 19.64L334.29-5.024h2.206l-27.343 25.87zM293.196.213l5.536-5.237h2.207l-6.81 6.444zm89.384 52.09L354.225 79.13l-.931-1.206 29.26-27.685.072.071.025-.027 29.215 27.641-.933 1.206zM308.22 268.562l74.358-70.35 74.358 70.35-.932 1.205-73.425-69.467-73.427 69.467zm-15.024-19.427l89.382-84.566 89.38 84.566-.928 1.204-88.451-83.68-88.451 83.681zM175.844 97.352l14.262-13.496 14.262 13.495-.932 1.206-13.33-12.611-13.33 12.61zm-30.048-38.856l44.225-41.842.016.018.085-.084 44.293 41.908-.932 1.206-43.377-41.04-43.379 41.04zm125.951-63.52h2.205l5.535 5.237-.932 1.206zm-35.559 0h2.207l26.068 24.665-.932 1.205zm206.803 47.2l-1.675-1.584 1.818 1.4 5.192-6.712 30.49-28.825 30.632 28.982 4.26 5.533 48.614-45.994h2.206l-49.889 47.2.75.967-36.574-34.6-36.575 34.604zm-49.887-47.2h2.206l46.601 44.092-.931 1.206zm85.711 80.852l-73.437 69.48-.932-1.207 74.37-70.362 74.37 70.36-.935 1.208zm0 134.566l-13.342 12.623-.932-1.205 14.274-13.507 14.275 13.507-.932 1.205zm0-67.284l-43.39 41.051-.932-1.206 44.322-41.933 44.323 41.933-.932 1.206zm-29.297 59.273l29.297-27.719 29.297 27.719-.929 1.205-28.368-26.836-28.365 26.837zm-60.096-77.71l89.393-84.576 89.394 84.576-.932 1.206-88.462-83.693-88.46 83.693zM500.694 19.64l26.068-24.665h2.208l-27.344 25.87zM485.67.213l5.534-5.237h2.208l-6.81 6.444zm89.383 52.09L546.699 79.13l-.932-1.206 29.287-27.709 29.286 27.707-.935 1.208zm-74.36 216.258l74.357-70.35 74.36 70.35-.932 1.205-73.425-69.467-73.428 69.467zm74.36-101.904l-88.451 83.682-.932-1.205 89.383-84.566 89.38 84.566-.932 1.205zM382.58 85.946l-13.332 12.61-.93-1.204 14.262-13.495 14.262 13.494-.932 1.206zm-44.31-27.45l44.283-41.897.073.073.026-.029 44.237 41.853-.932 1.206-43.377-41.04-43.379 41.04zm125.95-63.52h2.206L471.96.213l-.93 1.205zm-35.56 0h2.209l26.068 24.665-.932 1.205zm206.805 47.2l-1.675-1.585 1.818 1.4 5.189-6.712 30.492-28.824 30.633 28.982 4.26 5.533 48.614-45.994h2.206l-49.889 47.2.749.967-36.573-34.6-36.575 34.604zm-49.888-47.2h2.208l46.6 44.092-.931 1.206zm85.712 80.852l-73.436 69.48-.932-1.207 74.368-70.362 74.37 70.36-.933 1.208zm0 134.566l-13.342 12.623-.932-1.205 14.274-13.507 14.274 13.507-.931 1.205zm-44.322-27.439l44.322-41.933 44.323 41.933-.932 1.206-43.39-41.05-43.391 41.05zm15.025 19.428l29.297-27.719 29.297 27.719-.931 1.206-28.366-26.837-28.365 26.837zM671.29 42.186l-88.461 83.693-.932-1.206 89.393-84.576 89.394 84.576-.932 1.206zm21.879-22.545l26.068-24.665h2.208L694.1 20.846zM678.145.213l5.534-5.237h2.208l-6.81 6.444zm89.383 52.09L739.173 79.13l-.932-1.206 29.287-27.709 29.283 27.709-.932 1.206zm-74.36 216.258l74.357-70.35 74.357 70.35-.929 1.204-73.425-69.466-73.429 69.467zm74.36-101.904l-88.451 83.682-.932-1.205 89.38-84.566 89.382 84.566-.931 1.205zM560.79 97.352l14.264-13.496 14.26 13.495-.931 1.206-13.33-12.611-13.331 12.61zm-30.048-38.856l44.312-41.923 44.308 41.923-.931 1.206-43.377-41.04-43.38 41.04zm125.95-63.52h2.208l5.534 5.237-.932 1.206zm-35.558 0h2.206l26.07 24.665-.93 1.205zm206.805 47.2l-1.675-1.585 1.818 1.4 5.189-6.712 30.492-28.824 30.633 28.982 4.26 5.533L947.27-5.024h2.205l-49.888 47.2.749.967-36.573-34.6-36.575 34.604zm-49.888-47.2h2.205l46.603 44.092-.931 1.206zm85.712 80.852l-73.439 69.48-.931-1.207 74.37-70.362 74.37 70.36-.934 1.208zm0 134.566l-13.342 12.623-.932-1.205 14.274-13.507 14.274 13.507-.931 1.205zm0-67.284l-43.39 41.051-.932-1.206 44.322-41.933 44.323 41.933-.932 1.206zm-29.297 59.273l29.297-27.719 29.297 27.719-.932 1.206-28.365-26.837-28.365 26.837zm29.297-160.197l-88.462 83.693-.931-1.206 89.393-84.576 89.394 84.576-.932 1.206zm21.879-22.545L911.71-5.024h2.208l-27.345 25.87zM870.619.213l5.533-5.237h2.208l-6.81 6.444zm89.38 52.09L931.644 79.13l-.929-1.205 29.286-27.709 29.284 27.709-.932 1.206zm-74.357 216.258l74.357-70.35 74.357 70.35-.932 1.205-73.425-69.467-73.426 69.467zm74.357-101.904L871.55 250.34l-.932-1.205 89.38-84.566 89.382 84.566-.931 1.205zM753.264 97.352l14.264-13.496 14.26 13.495-.931 1.206-13.33-12.611-13.331 12.61zm-30.048-38.856l44.309-41.923 44.311 41.923-.931 1.206-43.377-41.04-43.38 41.04zm125.95-63.52h2.208l5.533 5.237-.931 1.206zm-35.558 0h2.206l26.068 24.665-.929 1.204zm206.805 47.2l-1.675-1.585 1.817 1.4 5.19-6.712 30.492-28.824 30.632 28.982 4.258 5.533 48.614-45.994h2.208l-49.888 47.2.749.967-36.573-34.6-36.575 34.604zm-49.888-47.2h2.205l46.603 44.092-.932 1.206zm11.341 149.125l74.371-70.362 74.368 70.362-.932 1.206-73.436-69.48-73.439 69.48zm74.371 66.293l-13.343 12.623-.931-1.205 14.274-13.507 14.274 13.507-.932 1.205zm-44.322-27.439l44.322-41.933 44.322 41.934-.931 1.205-43.391-41.05-43.39 41.05zm15.022 19.427l29.3-27.718 29.297 27.719-.932 1.206-28.365-26.837-28.365 26.837zm29.3-160.196l-88.462 83.693-.932-1.206 89.394-84.576 89.393 84.576-.931 1.206zm21.878-22.545l26.069-24.665h2.208l-27.345 25.87zM1063.09.212l5.536-5.236h2.208l-6.81 6.444zm89.382 52.092l-28.354 26.826-.932-1.206 29.286-27.709 29.287 27.709-.932 1.206zm-74.357 216.257l74.357-70.35 74.358 70.35-.932 1.205-73.426-69.467-73.425 69.467zm74.357-101.904l-88.448 83.682-.934-1.207 89.382-84.564 89.383 84.566-.931 1.205zM945.738 97.352l14.263-13.496 14.261 13.495-.932 1.206L960 85.946l-13.33 12.61zM915.69 58.496l44.309-41.923 44.309 41.923-.93 1.205-43.38-41.039-43.376 41.04zm125.95-63.52h2.208l5.533 5.237-.931 1.206zm-35.558 0h2.205l26.069 24.665-.932 1.205zm206.805 47.2l-49.889-47.2h2.206l48.615 45.994 4.4-5.69 30.492-28.825 30.632 28.982 4.258 5.533 48.614-45.994h2.208l-49.89 47.2.74.958-36.562-34.591-36.576 34.604zm-38.547 101.925l74.37-70.362 74.369 70.362-.932 1.206-73.436-69.48-73.439 69.48zm60.097 77.71l14.274-13.506 14.271 13.507-.929 1.204-13.342-12.622-13.343 12.623zm14.274-78.7l-43.39 41.05-.932-1.206 44.322-41.933 44.32 41.933-.932 1.206zm-29.3 59.272l29.3-27.719 29.297 27.719-.932 1.206-28.365-26.837-28.368 26.837zm29.3-160.197l-88.462 83.693-.931-1.206 89.393-84.576 89.393 84.574-.934 1.208zm21.878-22.545l26.069-24.665h2.205l-27.342 25.87zM1255.564.213l5.536-5.237h2.205l-6.81 6.444zm89.382 52.09l-28.354 26.827-.932-1.206 29.203-27.63.073.082.083-.091 29.214 27.639-.932 1.206zm-74.357 216.258l74.333-70.327.014.015.024-.024 74.343 70.336-.931 1.205-73.426-69.467-73.425 69.467zm74.357-101.904l-88.45 83.682-.932-1.205 89.358-84.542.014.015.024-.024 89.37 84.55-.933 1.206zm-206.734-69.305l14.263-13.496 14.261 13.495-.932 1.206-13.332-12.611-13.328 12.61zm14.26-78.69l-43.377 41.04-.931-1.206 44.308-41.923 44.31 41.923-.932 1.206zm81.641-23.686h2.206l5.536 5.237-.931 1.207zm-35.557 0h2.205l26.069 24.665-.932 1.205zm242.626 13.567l-36.565 34.595.744-.962-49.889-47.2h2.206l48.614 45.994 4.4-5.69 30.49-28.825 30.635 28.982 4.257 5.533 48.615-45.994h2.208l-49.89 47.2.748.967zm0 67.285l-73.436 69.48-.932-1.207 74.368-70.362 74.37 70.362-.931 1.206zm0 134.566l-13.343 12.622-.929-1.204 14.272-13.507 14.274 13.507-.931 1.205zm0-67.284l-43.388 41.051-.932-1.206 44.32-41.933 44.322 41.933-.931 1.206zm0 33.642l-28.365 26.837-.932-1.206 29.297-27.719 29.3 27.719-.932 1.206zm0-134.566l-88.459 83.693-.934-1.208 89.393-84.574 89.396 84.574-.934 1.208zm21.881-22.545l26.069-24.665h2.205l-27.345 25.869zM1448.038.213l5.536-5.237h2.205l-6.81 6.444zm89.382 52.09l-28.354 26.827-.932-1.206 29.203-27.63.073.082.083-.091 29.214 27.639-.932 1.206zm0 147.996l-73.428 69.466-.929-1.204 74.333-70.327.014.015.024-.024 74.344 70.336-.932 1.205zm0-33.642l-88.45 83.682-.932-1.205 89.358-84.542.014.015.024-.024 89.369 84.55-.932 1.206zm-206.734-69.305l14.234-13.47.016.015.024-.025 14.25 13.479-.932 1.206-13.332-12.611-13.329 12.61zm14.26-78.69l-43.377 41.04-.931-1.206 44.225-41.842.073.083.083-.094 44.236 41.853-.931 1.206zm81.641-23.686h2.206l5.536 5.237-.932 1.207zm-35.557 0h2.205l26.068 24.665-.931 1.205zM93.869 324.748l-73.438 69.48-.931-1.207 74.369-70.362 74.37 70.362-.932 1.206zM79.595 470.732l14.274-13.507 14.274 13.507-.931 1.205-13.343-12.623-13.343 12.624zm-30.047-38.857l44.321-41.932 44.322 41.932-.931 1.207-43.391-41.052-43.39 41.052zm44.321-6.203L65.502 452.51l-.931-1.207 29.298-27.719 29.298 27.72-.931 1.206zm0-134.566L5.407 374.799l-.931-1.206 89.393-84.576 89.393 84.576-.933 1.206zm96.237 43.76l-13.33 12.611-.932-1.206 14.262-13.494 14.262 13.494-.932 1.206zm0-67.284l-43.379 41.039-.931-1.205 44.31-41.922 44.309 41.922-.932 1.206zm0 33.642l-28.354 26.825-.932-1.205 29.286-27.709 29.286 27.708-.933 1.207zM115.747 517.48l74.359-70.35 74.357 70.35-.932 1.205-73.425-69.467-73.427 69.467zm-15.025-19.427l89.384-84.565 89.381 84.565-.932 1.206-88.449-83.683-88.45 83.683zM-1 336.159v-2.088l12.895 12.2-.933 1.206zm0-67.283v-2.09l42.941 40.63-.932 1.206zm0 33.642v-2.09l27.918 26.416-.931 1.205zm0 114.352v-2.088l88.015 83.272-.932 1.204zm0 33.642v-2.089l72.99 69.058-.932 1.205zm287.343-125.764l-73.438 69.48-.931-1.207 74.369-70.362 74.369 70.362-.933 1.206zm-14.274 145.984l14.274-13.507 14.273 13.507-.932 1.206-13.341-12.624L273 471.938zm14.274-78.702l-43.39 41.052-.933-1.207 44.323-41.932 44.322 41.932-.933 1.207zm-29.299 59.273l29.299-27.719 29.298 27.72-.932 1.204-28.366-26.836-28.367 26.838zm29.299-160.197l-88.462 83.693-.931-1.206 89.393-84.576 89.393 84.576-.933 1.206zm96.237 43.76l-13.332 12.611-.932-1.206 14.264-13.494 14.262 13.494-.932 1.206zm0-67.284L339.2 308.62l-.932-1.205 44.31-41.922 44.31 41.922-.932 1.206zm0 33.642l-28.355 26.825-.931-1.205 29.286-27.709 29.286 27.709-.933 1.206zM308.22 517.48l74.358-70.35 74.358 70.35-.932 1.205-73.425-69.467-73.427 69.467zm-15.025-19.427l89.383-84.565 89.38 84.565-.928 1.204-88.451-83.68-88.451 83.682zm185.62-173.306l-73.438 69.48-.932-1.207 74.37-70.362 74.37 70.36-.935 1.208zm0 134.566l-13.343 12.624-.932-1.206 14.274-13.507 14.275 13.507-.932 1.206zm0-67.284l-43.391 41.052-.932-1.207 44.322-41.932 44.323 41.932-.932 1.207zm-29.298 59.273l29.297-27.719 29.297 27.72-.929 1.204-28.368-26.836-28.365 26.838zm-60.096-77.71l89.393-84.576 89.394 84.576-.932 1.206-88.462-83.693-88.46 83.693zm171.368-27.322l14.264-13.494 14.26 13.494-.931 1.206-13.33-12.611-13.331 12.611zm14.264-78.69l-43.38 41.04-.932-1.205 44.312-41.922 44.308 41.922-.931 1.206zm0 33.643l-28.355 26.825-.932-1.205 29.287-27.709 29.286 27.708-.935 1.207zm-74.36 216.257l74.357-70.35 74.36 70.35-.932 1.205-73.425-69.467-73.428 69.467zm-15.023-19.427l89.383-84.565 89.38 84.565-.932 1.206-88.448-83.683-88.451 83.683zM671.29 324.748l-73.436 69.48-.932-1.207 74.368-70.362 74.37 70.36-.933 1.208zm0 134.566l-13.342 12.624-.932-1.206 14.274-13.507 14.274 13.507-.931 1.206zm-44.322-27.439l44.322-41.932 44.323 41.932-.932 1.207-43.39-41.052-43.391 41.052zm15.025 19.428l29.297-27.719 29.297 27.72-.931 1.206-28.366-26.838-28.365 26.838zm29.297-160.197l-88.461 83.693-.932-1.206 89.393-84.576 89.394 84.576-.932 1.206zm81.975 55.165l14.26-13.494 14.264 13.494-.931 1.206-13.33-12.611-13.331 12.611zm14.264-78.69l-43.38 41.04-.932-1.205 44.309-41.922 44.311 41.922-.931 1.206zm0 33.643l-28.355 26.825-.932-1.205 29.287-27.709 29.283 27.709-.932 1.205zm-74.36 216.257l74.357-70.35 74.357 70.35-.929 1.204-73.425-69.466-73.429 69.467zm-15.023-19.427l89.38-84.565 89.382 84.565-.931 1.206-88.448-83.683-88.451 83.683zm185.618-173.306l-73.439 69.48-.931-1.207 74.37-70.362 74.37 70.36-.934 1.208zm0 134.566l-13.342 12.624-.932-1.206 14.274-13.507 14.274 13.507-.931 1.206zm0-67.284l-43.39 41.052-.932-1.207 44.322-41.932 44.323 41.932-.932 1.207zm-29.297 59.273l29.297-27.719 29.297 27.72-.932 1.206-28.365-26.838-28.365 26.838zm29.297-160.197l-88.462 83.693-.931-1.206 89.393-84.576 89.394 84.576-.932 1.206zM960 334.866l-13.33 12.611-.93-1.206L960 332.777l14.261 13.494-.932 1.206zm0-67.284l-43.377 41.039-.932-1.205 44.309-41.922 44.309 41.922-.93 1.205zm0 33.642l-28.355 26.823-.929-1.203 29.286-27.709 29.284 27.709-.932 1.205zM885.642 517.48l74.357-70.35 74.357 70.35-.932 1.205-73.425-69.467-73.426 69.467zm-15.023-19.427l89.38-84.565 89.382 84.565-.931 1.206-88.451-83.683-88.448 83.683zM981.866 393.02l74.371-70.362 74.368 70.362-.932 1.206-73.436-69.48-73.439 69.48zm74.371 66.293l-13.343 12.624-.931-1.206 14.274-13.507 14.274 13.507-.932 1.206zm-44.322-27.439l44.322-41.932 44.322 41.934-.931 1.205-43.391-41.052-43.39 41.052zm15.022 19.427l29.3-27.718 29.297 27.72-.932 1.206-28.365-26.838-28.365 26.838zm29.3-160.196l-88.462 83.693-.932-1.206 89.394-84.576 89.393 84.576-.931 1.206zm96.235 43.76l-13.328 12.611-.932-1.206 14.26-13.494 14.264 13.494-.932 1.206zm0-67.284l-43.377 41.039-.931-1.205 44.308-41.922 44.31 41.922-.932 1.206zm0 33.642l-28.354 26.825-.932-1.205 29.286-27.709 29.287 27.709-.932 1.205zm-74.357 216.257l74.357-70.35 74.358 70.35-.932 1.205-73.426-69.467-73.425 69.467zm-15.025-19.429l89.382-84.564 89.383 84.566-.931 1.206-88.452-83.683-88.448 83.683zm111.25-105.031l74.37-70.362 74.369 70.362-.932 1.206-73.436-69.48-73.439 69.48zm60.097 77.71l14.274-13.506 14.271 13.507-.929 1.205-13.342-12.623-13.343 12.624zm14.274-78.7l-43.39 41.05-.932-1.206 44.322-41.932 44.32 41.932-.932 1.207zm-29.3 59.272l29.3-27.719 29.297 27.72-.932 1.206-28.365-26.838-28.368 26.838zm29.3-160.197l-88.462 83.693-.931-1.206 89.393-84.576 89.393 84.574-.934 1.208zm96.235 43.76l-13.329 12.611-.931-1.206 14.234-13.468.016.015.024-.026 14.25 13.479-.932 1.206zm0-67.284l-43.377 41.039-.931-1.205 44.284-41.898.014.015.024-.024 44.295 41.907-.931 1.206zm0 33.642l-28.354 26.825-.932-1.205 29.262-27.685.014.013.024-.023 29.273 27.695-.932 1.205zM1270.59 517.48l74.333-70.327.014.015.024-.024 74.343 70.336-.931 1.205-73.426-69.467-73.425 69.467zm-15.025-19.427l89.358-84.541.014.014.024-.024 89.37 84.55-.933 1.207-88.45-83.683-88.452 83.683zm185.618-173.306l-73.436 69.48-.932-1.207 74.368-70.362 74.37 70.362-.931 1.206zm0 134.566l-13.343 12.623-.929-1.205 14.272-13.507 14.274 13.507-.931 1.206zm0-67.284l-43.388 41.052-.932-1.207 44.32-41.932 44.322 41.932-.931 1.207zm0 33.642l-28.365 26.838-.932-1.207 29.297-27.719 29.3 27.72-.932 1.206zm0-134.566l-88.459 83.693-.934-1.208 89.393-84.574 89.396 84.574-.934 1.208zm96.238 43.76l-13.331 12.61-.93-1.205 14.237-13.47.014.015.024-.024 14.25 13.479-.932 1.206zm0-67.284l-43.377 41.039-.932-1.205 44.285-41.898.014.015.024-.024 44.295 41.907-.931 1.206zm0 33.642l-28.354 26.825-.932-1.205 29.262-27.685.014.013.024-.023 29.273 27.695-.932 1.205zm0 147.995l-73.428 69.466-.929-1.204 74.333-70.327.014.015.024-.024 74.344 70.336-.932 1.205zm-89.382 48.835l89.358-84.541.014.014.024-.024 89.369 84.55-.932 1.207-88.45-83.683-88.452 83.683zM93.869 573.668l-73.438 69.48-.931-1.207 74.369-70.362 74.37 70.362-.932 1.206zM79.595 719.652l14.274-13.506 14.274 13.506-.931 1.205-13.343-12.623-13.343 12.624zm-30.047-38.856l44.321-41.933 44.322 41.933-.931 1.206-43.391-41.051L50.479 682zm44.321-6.204L65.502 701.43l-.931-1.207 29.298-27.719 29.298 27.72-.931 1.206zm0-134.566L5.407 623.72l-.931-1.206 89.393-84.576 89.393 84.576-.933 1.206zm81.975 55.167l14.262-13.496 14.262 13.494-.932 1.206-13.33-12.611-13.33 12.611zm-30.048-38.857l44.225-41.842.016.018.085-.083 44.293 41.907-.932 1.206-43.377-41.04-43.379 41.04zm44.31-6.192l-28.354 26.826-.932-1.206 29.203-27.63.014.017.084-.082 29.271 27.695-.933 1.206zm43.173 188.841l-43.173-40.846-43.173 40.846h-2.208l45.381-42.935 45.38 42.935zm-35.558 0l-7.615-7.204-7.615 7.204h-2.207l9.822-9.293 9.822 9.293zm71.116 0l-78.731-74.487-78.732 74.487h-2.206l80.938-76.577 80.938 76.577zM-1 585.08v-2.09l12.895 12.201-.933 1.206zm0-67.284v-2.09l42.941 40.63-.932 1.206zm0 33.642v-2.09l27.92 26.416-.933 1.206zm77.364 187.547L-1 665.791v-2.089l79.57 75.283zm-71.117 0L-1 733.075v-2.09l8.455 8zm35.558 0L-1 699.432v-2.088l44.013 41.641zm245.538-165.317l-73.438 69.48-.931-1.207 74.369-70.362 74.369 70.362-.933 1.206zm-14.274 145.984l14.274-13.506 14.273 13.506-.932 1.206-13.341-12.624L273 720.858zm14.274-78.701L242.953 682l-.933-1.205 44.323-41.933 44.322 41.933-.933 1.206zm-29.299 59.272l29.299-27.719 29.298 27.72-.932 1.204-28.366-26.836-28.367 26.838zm29.299-160.197L197.88 623.72l-.931-1.206 89.393-84.576 89.393 84.576-.933 1.206zm96.237 43.76l-13.332 12.611-.93-1.204 14.262-13.496 14.262 13.494-.932 1.206zm-44.31-27.45l44.283-41.897.073.073.026-.029 44.237 41.853-.932 1.206-43.377-41.04-43.379 41.04zm44.31-6.192l-28.355 26.826-.931-1.206 29.26-27.684.072.07.025-.026 29.215 27.64-.933 1.206zm43.172 188.841L382.58 698.14l-43.174 40.846h-2.207l45.38-42.935 45.379 42.935zm-35.557 0l-7.615-7.204-7.615 7.204h-2.207l9.822-9.293 9.822 9.293zm71.115 0l-78.73-74.487-78.732 74.487h-2.208l80.94-76.577 80.938 76.577zm17.505-165.317l-73.437 69.48-.932-1.207 74.37-70.362 74.37 70.36-.935 1.208zm0 134.566l-13.342 12.624-.932-1.206 14.274-13.506 14.275 13.506-.932 1.206zm0-67.283L435.425 682l-.932-1.205 44.322-41.933 44.323 41.933-.932 1.206zm-29.297 59.272l29.297-27.719 29.297 27.72-.929 1.204-28.368-26.836-28.365 26.838zm-60.096-77.71l89.393-84.576 89.394 84.576-.932 1.206-88.462-83.693-88.46 83.693zm171.368-27.32l14.264-13.496 14.26 13.494-.931 1.206-13.33-12.611-13.331 12.611zm-30.048-38.857l44.312-41.922 44.308 41.922-.931 1.206-43.377-41.04-43.38 41.04zm44.312-6.192l-28.355 26.826-.932-1.206 29.287-27.708 29.286 27.707-.935 1.207zm43.172 188.841l-43.172-40.846-43.176 40.846h-2.205l45.38-42.935 45.379 42.935zm-35.557 0l-7.615-7.204-7.615 7.204h-2.208l9.823-9.293 9.82 9.293zm71.115 0l-78.73-74.487-78.733 74.487h-2.208l80.94-76.577 80.939 76.577zm17.505-165.317l-73.436 69.48-.932-1.207 74.368-70.362 74.37 70.36-.933 1.208zm0 134.566l-13.342 12.624-.932-1.206 14.274-13.506 14.274 13.506-.931 1.206zm-44.322-27.438l44.322-41.933 44.323 41.933-.932 1.206-43.39-41.051L627.898 682zm15.025 19.427l29.297-27.719 29.297 27.72-.931 1.206-28.366-26.838-28.365 26.838zm29.297-160.197l-88.461 83.693-.932-1.206 89.393-84.576 89.394 84.576-.932 1.206zm81.975 55.167l14.264-13.496 14.26 13.494-.931 1.206-13.33-12.611-13.331 12.611zm-30.048-38.857l44.309-41.922 44.311 41.922-.931 1.206-43.377-41.04-43.38 41.04zm44.312-6.192l-28.355 26.826-.932-1.206 29.287-27.708 29.283 27.708-.932 1.206zM810.7 738.985l-43.172-40.846-43.176 40.846h-2.205l45.378-42.935 45.38 42.935zm-35.56 0l-7.612-7.204-7.615 7.204h-2.208l9.82-9.293 9.823 9.293zm71.118 0l-78.73-74.487-78.733 74.487h-2.208l80.938-76.577 80.94 76.577zm17.505-165.317l-73.439 69.48-.931-1.207 74.37-70.362 74.37 70.36-.934 1.208zm0 134.566l-13.342 12.624-.932-1.206 14.274-13.506 14.274 13.506-.931 1.206zm0-67.283L820.373 682l-.932-1.205 44.322-41.933 44.323 41.933-.932 1.206zm-29.297 59.272l29.297-27.719 29.297 27.72-.932 1.206-28.365-26.838-28.365 26.838zm29.297-160.197l-88.462 83.693-.931-1.206 89.393-84.576 89.394 84.576-.932 1.206zm81.975 55.167l14.263-13.496 14.261 13.494-.932 1.206L960 583.786l-13.33 12.611zm-30.048-38.857l44.309-41.922 44.309 41.922-.93 1.205-43.38-41.038-43.376 41.04zm44.309-6.192l-28.355 26.825-.929-1.205 29.286-27.708 29.284 27.708-.932 1.206zm43.172 188.841L960 698.14l-43.173 40.846h-2.208l45.38-42.935 45.381 42.935zm-35.557 0L960 731.781l-7.615 7.204h-2.208l9.823-9.293 9.82 9.293zm71.117 0L960 664.498l-78.73 74.487h-2.208l80.938-76.577 80.938 76.577zm-56.865-97.044l74.371-70.362 74.368 70.362-.932 1.206-73.436-69.48-73.439 69.48zm74.371 66.293l-13.343 12.624-.931-1.206 14.274-13.506 14.274 13.506-.932 1.206zm-44.322-27.438l44.322-41.933 44.322 41.934-.931 1.205-43.391-41.051-43.39 41.05zm15.022 19.426l29.3-27.718 29.297 27.72-.932 1.206-28.365-26.838-28.365 26.838zm29.3-160.196l-88.462 83.693-.932-1.206 89.394-84.576 89.393 84.576-.931 1.206zm81.975 55.167l14.263-13.496 14.261 13.494-.932 1.206-13.332-12.611-13.328 12.611zm14.26-78.69l-43.377 41.04-.931-1.207 44.308-41.922 44.31 41.922-.932 1.206zm0 33.64l-28.354 26.827-.932-1.206 29.286-27.708 29.287 27.708-.932 1.206zm43.173 188.842l-43.173-40.846-43.172 40.846h-2.208l45.38-42.935 45.381 42.935zm-35.557 0l-7.616-7.204-7.615 7.204h-2.205l9.82-9.293 9.824 9.293zm71.117 0l-78.733-74.487-78.73 74.487h-2.208l80.938-76.577 80.939 76.577zm-56.865-97.044l74.37-70.362 74.369 70.362-.932 1.206-73.436-69.48-73.439 69.48zm60.097 77.71l14.274-13.505 14.271 13.506-.929 1.205-13.342-12.623-13.343 12.624zm14.274-78.7L1205.32 682l-.932-1.205 44.322-41.933 44.32 41.933-.932 1.206zm-29.3 59.272l29.3-27.719 29.297 27.72-.932 1.206-28.365-26.838-28.368 26.838zm29.3-160.197l-88.462 83.693-.931-1.206 89.393-84.576 89.393 84.575-.934 1.207zm81.975 55.167l14.234-13.47.016.015.024-.026 14.25 13.48-.932 1.205-13.332-12.611-13.329 12.611zm14.26-78.69l-43.377 41.04-.931-1.207 44.225-41.842.073.084.083-.095 44.236 41.853-.931 1.206zm0 33.64l-28.354 26.827-.932-1.206 29.203-27.63.073.083.083-.092 29.214 27.64-.932 1.205zm43.173 188.842l-43.173-40.846-43.172 40.846h-2.208l45.356-42.91.014.014.024-.024 45.367 42.92zm-35.557 0l-7.616-7.204-7.615 7.204h-2.205l9.796-9.269.014.013.024-.023 9.81 9.28zm71.117 0l-78.733-74.487-78.73 74.487h-2.208l80.914-76.552.014.015.024-.025 80.925 76.562zm17.503-165.317l-73.436 69.48-.932-1.207 74.368-70.362 74.37 70.362-.931 1.206zm0 134.566l-13.343 12.623-.929-1.205 14.272-13.506 14.274 13.506-.931 1.206zm0-67.283L1397.794 682l-.932-1.205 44.32-41.933 44.322 41.933-.931 1.206zm0 33.641l-28.365 26.838-.932-1.207 29.297-27.719 29.3 27.72-.932 1.206zm0-134.566l-88.459 83.693-.934-1.207 89.393-84.575 89.396 84.575-.934 1.207zm96.238 43.76l-13.331 12.61-.93-1.203 14.237-13.472.014.015.024-.024 14.25 13.48-.932 1.205zm0-67.283l-43.377 41.04-.932-1.207 44.226-41.842.073.084.083-.095 44.236 41.853-.931 1.206zm0 33.64l-28.354 26.827-.932-1.206 29.203-27.63.073.083.083-.092 29.214 27.64-.932 1.205zm43.173 188.842l-43.173-40.846-43.172 40.846h-2.208l45.356-42.91.014.014.024-.024 45.367 42.92zm-35.558 0l-7.615-7.204-7.615 7.204h-2.208l9.8-9.269.013.012.024-.022 9.81 9.28zm71.115 0l-78.73-74.487-78.733 74.487h-2.205l80.914-76.552.014.015.024-.025 80.925 76.562zm17.506-730.442l-36.565 34.595.743-.962-1.664-1.573 1.804 1.389 5.192-6.712 30.49-28.825 30.635 28.982 4.257 5.533 48.615-45.994h2.205l-49.888 47.2.749.967zm-85.71-13.567h2.205l46.6 44.092-.928 1.205zm85.71 80.852l-73.436 69.48-.932-1.207 74.368-70.362 74.37 70.362-.931 1.206zm0 134.566l-13.342 12.623-.932-1.205 14.274-13.507 14.274 13.507-.932 1.205zm0-67.284l-43.388 41.051-.932-1.206 44.32-41.933 44.322 41.933-.931 1.206zm0 33.642l-28.365 26.837-.932-1.206 29.297-27.719 29.3 27.719-.932 1.206zm0-134.566l-88.462 83.693-.931-1.206 89.393-84.576 89.393 84.576-.931 1.206zm21.878-22.545l26.071-24.665h2.206l-27.345 25.87zM1640.512.213l5.533-5.237h2.208l-6.81 6.444zm60.096 77.711l29.203-27.63.073.082.083-.091 29.213 27.637-.931 1.207-28.355-26.825-28.354 26.826zm-45.074 190.637l74.336-70.327.014.016.026-.024 74.341 70.335-.931 1.205-73.426-69.467-73.428 69.467zm-15.022-19.427l89.358-84.542.014.016.026-.024 89.364 84.55-.929 1.204-88.45-83.68-88.452 83.681zM1537.42 85.946l-13.331 12.61-.93-1.204 14.237-13.47.014.014.024-.024 14.25 13.479-.932 1.206zm0-67.284l-43.377 41.04-.932-1.206 44.226-41.842.073.083.083-.094 44.236 41.853-.931 1.206zm81.641-23.686h2.206l5.536 5.237-.932 1.207zm-35.557 0h2.205l26.069 24.665-.932 1.205zm206.801 47.2l-1.674-1.584 1.817 1.4 5.192-6.712 30.49-28.825 30.632 28.982 4.26 5.533 48.615-45.994h2.205l-49.888 47.2.748.967-36.572-34.6-36.576 34.604zm-49.888-47.2h2.209l46.6 44.092-.932 1.206zm85.713 80.852l-73.437 69.48-.931-1.207 74.368-70.362 74.37 70.362-.931 1.206zm0 134.566l-13.343 12.623-.931-1.205 14.274-13.507 14.274 13.507-.932 1.205zm0-67.284l-43.39 41.051-.933-1.206 44.323-41.933 44.322 41.933-.931 1.206zm-29.297 59.273l29.297-27.719 29.297 27.719-.93 1.205-28.367-26.836-28.365 26.837zm29.297-160.197l-88.462 83.693-.932-1.206 89.394-84.576 89.393 84.576-.931 1.206zm81.975 55.166L1921 85.15v2.09l-11.964 11.317zm-60.097-77.71l26.069-24.666h2.208l-27.345 25.87zM1832.986.212l5.533-5.237h2.208l-6.81 6.444zm45.07 58.283L1921 17.866v2.09l-42.012 39.746zm15.026 19.428L1921 51.507v2.09l-26.986 25.533zm-391.475 88.712l-60.425-57.167-60.425 57.17.749.964-36.56-34.588-36.561 34.591.75-.97-60.424-57.167-60.428 57.17.749.964-36.56-34.588-36.561 34.591.75-.97-60.424-57.167-60.425 57.168.754.976-36.567-34.598-36.568 34.598.757-.977-60.425-57.167-60.425 57.168.754.973-36.564-34.595-36.573 34.601.76-.98-60.426-57.167-60.425 57.168.751.972-36.561-34.594-36.57 34.6.756-.98-60.425-57.166-60.424 57.168.753.973-36.564-34.595-36.566 34.595.754-.974-60.425-57.167-60.426 57.168.75.97-36.56-34.592-36.567 34.596.754-.975-60.425-57.167-60.424 57.168.752.974L-1 134.308v-2.088l29.254 27.678 1.496 1.961 2.763 3.572 61.356-58.05 59.347 56.148-.742.959 2.183 1.679 4.971-6.426 30.478-28.814 30.622 28.97 1.494 1.96 2.764 3.574 61.357-58.05 61.355 58.05 1.674-2.165 2.729-3.525 30.478-28.814 30.621 28.97 4.259 5.535 61.356-58.051 59.346 56.148-.773 1 2.183 1.68 5.004-6.468 30.476-28.814 30.624 28.97 1.492 1.96 2.766 3.574 61.356-58.05 61.357 58.05 4.338-5.608 30.54-28.896 30.625 28.97 1.495 1.96 2.763 3.574 61.356-58.05 61.357 58.051 2.733-3.536 1.667-2.155 30.479-28.814 30.624 28.97 1.495 1.96 2.762 3.574 61.357-58.05 61.357 58.051 2.733-3.536 1.666-2.155 30.48-28.814 30.624 28.97 1.492 1.96 2.765 3.574 61.357-58.05 61.354 58.05 4.402-5.69 30.455-28.79.014.014.024-.023 30.608 28.956 4.258 5.534 61.356-58.051 61.357 58.05.948-1.224 3.454-4.466 30.455-28.79.014.014.024-.023 30.608 28.956 4.257 5.534 61.357-58.051 59.345 56.148-.929 1.206-58.416-55.266-60.425 57.168.748.967-36.558-34.589-36.573 34.601zm194.305-2.365l3.503-4.53 30.455-28.79.014.014.024-.024 30.608 28.957 4.257 5.534 61.357-58.051 59.345 56.148-.932 1.205-58.413-55.265-60.425 57.168.754.973-36.565-34.595-36.57 34.6zm195.977-4.53L1921 132.219v2.09l-35.191 33.296zm-176.258-62.39l14.239-13.47.014.015.024-.024 14.247 13.479-.932 1.206-13.329-12.611-13.332 12.61zm-30.048-38.856l44.228-41.841.073.085.086-.094 44.233 41.85-.932 1.207-43.377-41.04-43.377 41.04zm125.952-63.519h2.206l5.533 5.237-.929 1.205zm-35.56 0h2.208l26.068 24.665-.931 1.205zm-142.32 329.772l-73.435 69.48-.932-1.207 74.368-70.362 74.37 70.362-.931 1.206zm0 134.566l-13.341 12.624-.932-1.206 14.274-13.507 14.274 13.507-.932 1.206zm0-67.284l-43.387 41.052-.932-1.207 44.32-41.932 44.322 41.932-.931 1.207zm0 33.642l-28.364 26.838-.932-1.207 29.297-27.719 29.3 27.72-.932 1.206zm0-134.566l-88.46 83.693-.932-1.206 89.393-84.576 89.393 84.576-.931 1.206zm81.976 55.165l14.239-13.47.014.015.024-.024 14.247 13.479-.932 1.206-13.329-12.611-13.332 12.611zm14.263-78.69l-43.377 41.04-.934-1.206 44.287-41.897.014.016.026-.024 44.293 41.906-.932 1.206zm-29.286 59.263l29.262-27.685.014.013.024-.023 29.272 27.694-.934 1.206-28.352-26.825-28.354 26.825zm-45.074 190.637l74.336-70.327.014.016.026-.024 74.341 70.335-.931 1.205-73.426-69.467-73.428 69.467zm-15.022-19.427l89.358-84.541.014.016.026-.024 89.364 84.549-.929 1.204-88.45-83.68-88.452 83.682zm-427.625-206.958l-60.415-57.155-60.41 57.155.748.967-36.573-34.599-36.575 34.605.75-.973-1.677-1.586 1.82 1.4 5.19-6.711 30.492-28.824 30.632 28.982 4.258 5.535 61.345-58.04 61.346 58.04 4.4-5.693 30.493-28.824 30.632 28.982 4.258 5.535 61.321-58.016.014.015.024-.024 61.332 58.025 4.4-5.693 30.49-28.824 30.635 28.982 4.257 5.535 61.322-58.016.014.015.024-.024 59.318 56.123-.929 1.203-58.403-55.252-60.414 57.155.749.967-36.573-34.599-36.567 34.595.746-.963-60.415-57.155-60.414 57.155.74.958-36.561-34.59-36.576 34.605zm577.418 0l-1.674-1.585 1.817 1.401 5.192-6.712 30.49-28.825 30.632 28.982 4.26 5.535L1921 233.145v2.089l-59.046 55.862.748.967-36.572-34.599-36.576 34.603zm-1347.314 0l-1.675-1.583 1.818 1.4 5.192-6.713 30.49-28.825 30.632 28.982 4.26 5.535 61.346-58.04 59.332 56.138-.932 1.204-58.4-55.253-60.415 57.155.75.967-36.574-34.599-36.575 34.603zm384.948 0l-1.675-1.585 1.818 1.4 5.189-6.712 30.492-28.824 30.633 28.982 4.26 5.535 61.343-58.04 59.334 56.138-.932 1.204-58.4-55.253-60.414 57.155.749.967-36.573-34.599-36.575 34.603zm-192.474 0l-1.675-1.585 1.818 1.4 5.189-6.712 30.492-28.824 30.633 28.982 4.26 5.535 61.343-58.04 59.334 56.138-.931 1.204-58.4-55.253-60.415 57.155.749.967-36.573-34.599-36.575 34.603zm-384.946 0l-60.413-57.155-60.414 57.155.744.963-36.567-34.595-36.571 34.6.748-.968-1.67-1.58 1.813 1.396 5.19-6.712 30.49-28.825 30.631 28.982 4.26 5.535 61.346-58.04 61.344 58.04 4.403-5.692 30.49-28.825 30.631 28.982 4.26 5.535 61.346-58.04 59.331 56.138-.931 1.204-58.4-55.253-60.414 57.155.744.963-36.567-34.595-36.574 34.602zm1383.137-33.632l-36.567 34.595.745-.963-1.664-1.573 1.804 1.39 5.192-6.713 30.49-28.825 30.635 28.982 4.257 5.535 61.322-58.016.014.015.024-.024 59.318 56.123-.932 1.204-58.4-55.253-60.414 57.155.749.967zM-1 235.234v-2.09l57.965 54.846-.93 1.204zm1827.13 89.514l-73.437 69.48-.931-1.207 74.368-70.362 74.37 70.362-.931 1.206zm0 134.566l-13.343 12.624-.931-1.206 14.274-13.507 14.274 13.507-.932 1.206zm0-67.284l-43.39 41.052-.933-1.207 44.323-41.932 44.322 41.932-.931 1.207zm-29.297 59.273l29.297-27.719 29.297 27.72-.93 1.204-28.367-26.836-28.365 26.838zm29.297-160.197l-88.462 83.693-.932-1.206 89.394-84.576 89.393 84.576-.931 1.206zm81.975 55.165l12.895-12.2v2.088l-11.964 11.318zm-60.097-77.71L1921 199.503v2.089l-72.06 68.174zm-15.022-19.427L1921 165.862v2.088l-87.083 82.39zm45.07 58.282l42.944-40.63v2.09l-42.012 39.745zm15.026 19.428L1921 300.429v2.089l-26.986 25.531zm-933.083 55.092l-36.56 34.59 3.988-5.16 2.093-2.706 30.479-28.814 30.624 28.972 1.495 1.96 2.762 3.573 61.357-58.05 59.345 56.148-.932 1.205-58.413-55.265-60.425 57.168.751.972zM736.98 408.745l30.544-28.898 30.624 28.971 1.495 1.96 2.763 3.573 61.356-58.05 59.345 56.148-.932 1.205-58.413-55.265-60.425 57.168.752.97-36.562-34.591-36.565 34.592zm-192.406-.084l30.476-28.814 30.624 28.971 1.492 1.96 2.766 3.573 61.356-58.05 59.345 56.148-.931 1.205-58.414-55.265-60.425 57.168.751.97-36.561-34.591-36.565 34.59zm1185.32-26.725l-36.555 34.583 6.075-7.86 30.455-28.788.014.015.024-.025 30.608 28.957 4.257 5.534 61.357-58.051 59.345 56.148-.932 1.205-58.413-55.265-60.425 57.168.751.97zm-1347.315 0l-36.56 34.588 6.08-7.864 30.479-28.813 30.621 28.971 4.259 5.534 61.356-58.051 59.345 56.148-.931 1.205-58.414-55.265-60.424 57.168.75.97zM-1 383.229v-2.088l29.254 27.677 1.496 1.961 2.763 3.572 61.356-58.05 59.347 56.148-.932 1.205-58.415-55.265-60.425 57.168.75.97zm191.106-1.293l-36.554 34.583 6.076-7.86 30.478-28.813 30.622 28.972 1.494 1.96 2.764 3.573 61.357-58.05 59.345 56.148-.932 1.205-58.413-55.265-60.426 57.168.748.967zm1154.84 0l-36.553 34.583 6.074-7.86 30.455-28.788.014.015.024-.025 30.608 28.957 4.257 5.534 61.357-58.051 59.348 56.15-.932 1.204-58.416-55.266-60.425 57.17.746.961zm-192.474 0l-36.553 34.583 3.982-5.153 2.092-2.706 30.48-28.814 30.624 28.972 1.492 1.96 2.765 3.573 61.357-58.05 59.345 56.15-.932 1.203-58.413-55.265-60.428 57.17.746.961zm384.948 0l-36.554 34.583 6.075-7.86 30.455-28.788.014.015.024-.025 30.608 28.957 4.257 5.534 61.357-58.051L1693 412.449l-.929 1.206-58.416-55.266-60.425 57.168.746.963zm354.47 26.724l29.11-27.52v2.089l-35.186 33.29zm-258.234 165.008l-73.436 69.48-.932-1.207 74.368-70.362 74.37 70.362-.931 1.206zm0 134.566l-13.342 12.624-.932-1.206 14.274-13.506 14.274 13.506-.932 1.206zm0-67.283L1590.268 682l-.932-1.205 44.32-41.933 44.322 41.933-.931 1.206zm0 33.641l-28.365 26.838-.932-1.207 29.297-27.719 29.3 27.72-.932 1.206zm0-134.566l-88.462 83.693-.931-1.206 89.393-84.576 89.393 84.576-.931 1.206zm81.975 55.167l14.239-13.472.014.015.024-.024 14.247 13.48-.932 1.205-13.329-12.611-13.332 12.611zm-30.048-38.858l44.228-41.84.073.084.086-.094 44.233 41.851-.932 1.206-43.377-41.04-43.377 41.04zm15.025 19.43l29.203-27.63.073.082.083-.092 29.213 27.638-.931 1.206-28.355-26.825-28.354 26.826zm72.459 163.22l-43.173-40.846-43.173 40.846h-2.207l45.356-42.91.014.016.026-.024 45.362 42.918zm-35.558 0l-7.615-7.204-7.615 7.204h-2.208l9.799-9.269.014.013.024-.022 9.807 9.278zm71.115 0l-78.73-74.487-78.733 74.487h-2.205l80.914-76.552.014.015.024-.025 80.924 76.562zm-595.737-198.969l-60.415-57.155-60.41 57.155.748.967-36.573-34.6-36.575 34.604.75-.97-1.674-1.583 1.817 1.397 5.19-6.712 30.492-28.824 30.632 28.982 4.258 5.534 61.345-58.039 61.346 58.039 4.4-5.69 30.493-28.826 30.632 28.982 4.258 5.534 61.321-58.015.014.015.024-.024 61.332 58.024 4.4-5.69 30.49-28.826 30.635 28.982 4.257 5.534 61.322-58.015.014.015.024-.024 59.318 56.121-.929 1.205-58.403-55.252-60.414 57.155.749.967-36.573-34.6-36.565 34.595.744-.962-60.415-57.155-60.414 57.155.74.958-36.561-34.591-36.576 34.604zm577.418 0l-1.672-1.582 1.815 1.398 5.192-6.712 30.49-28.825 30.632 28.982 4.26 5.534L1921 482.065v2.089l-59.046 55.862.748.966-36.572-34.6-36.576 34.605zm-1347.314 0l-1.672-1.582 1.815 1.398 5.191-6.712 30.49-28.825 30.633 28.982 4.26 5.534 61.346-58.039 59.331 56.136-.931 1.206-58.4-55.253-60.415 57.155.75.966-36.574-34.6-36.575 34.605zm384.948 0l-1.672-1.582 1.815 1.397 5.189-6.712 30.492-28.824 30.633 28.982 4.26 5.534 61.343-58.039 59.334 56.136-.932 1.206-58.4-55.253-60.414 57.155.749.967-36.573-34.6-36.575 34.603zm-192.474 0l-1.672-1.582 1.815 1.397 5.189-6.712 30.492-28.824 30.633 28.982 4.26 5.534 61.343-58.039 59.334 56.136-.931 1.206-58.4-55.253-60.415 57.155.749.967-36.573-34.6-36.575 34.603zm-384.946 0l-1.67-1.58 1.813 1.396 5.191-6.712 30.49-28.825 30.631 28.982 4.26 5.534 61.346-58.039 59.331 56.136-.931 1.206-58.4-55.253-60.414 57.155.743.96-36.566-34.593-36.573 34.602zm1383.137-33.633l-36.565 34.595.743-.962-1.66-1.571 1.8 1.387 5.192-6.712 30.49-28.825 30.635 28.982 4.257 5.534 61.322-58.015.014.015.024-.024 59.318 56.121-.932 1.206-58.4-55.253-60.414 57.155.749.967zM58.046 540.016l-1.667-1.577 1.81 1.393 5.19-6.712 30.49-28.825 30.631 28.982 4.26 5.534 61.346-58.039 59.333 56.136-.932 1.206-58.401-55.253-60.414 57.155.744.962-36.567-34.595-36.57 34.6zM-1 484.154v-2.089l57.966 54.843-.931 1.206zm1827.13 89.514l-73.437 69.48-.931-1.207 74.368-70.362 74.37 70.362-.931 1.206zm0 134.566l-13.343 12.624-.931-1.206 14.274-13.506 14.274 13.506-.932 1.206zm0-67.283L1782.74 682l-.933-1.205 44.323-41.933 44.322 41.933-.931 1.206zm-29.297 59.272l29.297-27.719 29.297 27.72-.93 1.204-28.367-26.836-28.365 26.838zm29.297-160.197l-88.462 83.693-.932-1.206 89.394-84.576 89.393 84.576-.931 1.206zm81.975 55.167L1921 582.99v2.09l-11.964 11.317zm-60.097-77.712L1921 448.423v2.09l-72.06 68.173zm-15.022-19.427L1921 414.782v2.088l-87.083 82.39zm45.07 58.282l42.944-40.63v2.09l-42.012 39.746zm15.026 19.428L1921 549.347v2.09l-26.986 25.533zm-391.475 88.712l-60.425-57.167-60.425 57.17.749.964-36.56-34.587-36.561 34.59.75-.97-60.424-57.167-60.428 57.17.749.964-36.56-34.587-36.561 34.59.75-.97-60.424-57.167-60.425 57.168.754.977-36.567-34.598-36.568 34.598.757-.978-60.425-57.167-60.425 57.168.754.974-36.564-34.595-36.573 34.6.76-.98-60.426-57.167-60.425 57.168.751.973-36.561-34.594-36.57 34.599.756-.98-60.425-57.166-60.424 57.168.753.974-36.564-34.595-36.566 34.595.754-.975-60.425-57.167-60.426 57.168.75.97-36.56-34.591-36.567 34.595.754-.975-60.425-57.167-60.424 57.168.752.974L-1 632.149v-2.088l29.254 27.677 1.496 1.962 2.763 3.571 61.356-58.05 59.347 56.148-.742.959 2.183 1.68 4.971-6.427 30.478-28.814 30.622 28.971 1.494 1.96 2.764 3.573 61.357-58.05 61.355 58.05 1.674-2.164 2.729-3.526 30.478-28.814 30.621 28.971 4.259 5.534 61.356-58.051 59.346 56.148-.773 1 2.183 1.68 5.004-6.468 30.476-28.814 30.624 28.971 1.492 1.96 2.766 3.573 61.356-58.05 61.357 58.05 4.338-5.608 30.54-28.896 30.625 28.971 1.495 1.96 2.763 3.573 61.356-58.05 61.357 58.051 2.733-3.537 1.667-2.154 30.479-28.814 30.624 28.971 1.495 1.96 2.762 3.573 61.357-58.05 61.357 58.051 2.733-3.537 1.666-2.154 30.48-28.814 30.624 28.971 1.492 1.96 2.765 3.573 61.357-58.05 61.354 58.05 4.402-5.69 30.455-28.79.014.015.024-.025 30.608 28.957 4.258 5.534 61.356-58.051 61.357 58.05.948-1.223 3.454-4.467 30.455-28.79.014.015.024-.025 30.608 28.957 4.257 5.534 61.357-58.051 59.345 56.148-.929 1.206-58.416-55.266-60.425 57.168.748.967-36.558-34.588-36.573 34.6zm194.305-2.364l3.503-4.53 30.455-28.791.014.015.024-.025 30.608 28.957 4.257 5.534 61.357-58.051 59.345 56.148-.932 1.205-58.413-55.265-60.425 57.168.754.974-36.565-34.595-36.57 34.599zm195.977-4.53L1921 630.058v2.09l-35.191 33.297zm-14.901 81.403L1921 697.344v2.088l-41.807 39.553zm35.557 0l8.455-8v2.09l-6.247 5.91zm-71.118 0L1921 663.702v2.089l-77.365 73.194z"/></g></g></svg>