<svg xmlns="http://www.w3.org/2000/svg" width="269" height="686" viewBox="0 0 269 686"><defs><clipPath id="3rgea"><path fill="#fff" d="M44.802 576.803S76.085 474 93.502 435.758c17.418-38.24 41.263-67.356 82.645-99.012 41.381-31.655 60.898-103.625-8.117-190.551C99.015 59.27 48.02 34.34 35.947 25.7"/></clipPath><clipPath id="3rgeb"><path fill="#fff" d="M42.588 675.815s21.104.79 47.225-97.144c26.121-97.933 38.712-125.108 58.294-160.66 19.581-35.552 40.534-57.764 68.624-77.528 28.09-19.764 74.285-77.494 5.903-178.408C154.252 61.16 30.705-15.277 10.12 19.16"/></clipPath><mask id="3rged" width="2" height="2" x="-1" y="-1"><path fill="#fff" d="M133 220h28v29h-28z"/><path d="M147.328 220.937c7.43 0 13.453 6.198 13.453 13.844 0 7.646-6.023 13.844-13.453 13.844s-13.453-6.198-13.453-13.844c0-7.646 6.023-13.844 13.453-13.844z"/></mask><filter id="3rgec" width="58" height="62" x="118" y="205" filterUnits="userSpaceOnUse"><feOffset dy="3" in="SourceGraphic" result="FeOffset1073Out"/><feGaussianBlur in="FeOffset1073Out" result="FeGaussianBlur1074Out" stdDeviation="2 2"/></filter><clipPath id="3rgee"><path fill="#fff" d="M147.328 220.937c7.43 0 13.453 6.198 13.453 13.844 0 7.646-6.023 13.844-13.453 13.844s-13.453-6.198-13.453-13.844c0-7.646 6.023-13.844 13.453-13.844z"/></clipPath><mask id="3rgeg" width="2" height="2" x="-1" y="-1"><path fill="#fff" d="M172 478h9v9h-9z"/><path d="M176.281 478.187a4.227 4.227 0 0 1 4.219 4.235 4.227 4.227 0 0 1-4.219 4.234 4.227 4.227 0 0 1-4.219-4.234 4.226 4.226 0 0 1 4.22-4.235z"/></mask><filter id="3rgef" width="39" height="42" x="157" y="463" filterUnits="userSpaceOnUse"><feOffset dy="3" in="SourceGraphic" result="FeOffset1091Out"/><feGaussianBlur in="FeOffset1091Out" result="FeGaussianBlur1092Out" stdDeviation="2 2"/></filter><clipPath id="3rgeh"><path fill="#fff" d="M176.281 478.187a4.227 4.227 0 0 1 4.219 4.235 4.227 4.227 0 0 1-4.219 4.234 4.227 4.227 0 0 1-4.219-4.234 4.226 4.226 0 0 1 4.22-4.235z"/></clipPath><mask id="3rgej" width="2" height="2" x="-1" y="-1"><path fill="#fff" d="M101 133h10v10h-10z"/><path d="M107.04 138.164l2.915 3.047a.981.981 0 0 1 0 1.344.881.881 0 0 1-1.287 0l-2.914-3.046-2.914 3.046a.881.881 0 0 1-1.287 0 .981.981 0 0 1 0-1.344l2.915-3.047-2.915-3.046a.982.982 0 0 1 0-1.345.883.883 0 0 1 1.287 0l2.914 3.047 2.914-3.047a.883.883 0 0 1 1.287 0 .982.982 0 0 1 0 1.345z"/></mask><filter id="3rgei" width="40" height="43" x="86" y="118" filterUnits="userSpaceOnUse"><feOffset dy="3" in="SourceGraphic" result="FeOffset1109Out"/><feGaussianBlur in="FeOffset1109Out" result="FeGaussianBlur1110Out" stdDeviation="2 2"/></filter><mask id="3rgel" width="2" height="2" x="-1" y="-1"><path fill="#fff" d="M97 325h9v9h-9z"/><path d="M101.613 333.811l-4.344-4.354 4.344-4.354 4.344 4.354z"/></mask><filter id="3rgek" width="39" height="42" x="82" y="310" filterUnits="userSpaceOnUse"><feOffset dy="3" in="SourceGraphic" result="FeOffset1125Out"/><feGaussianBlur in="FeOffset1125Out" result="FeGaussianBlur1126Out" stdDeviation="2 2"/></filter><mask id="3rgen" width="2" height="2" x="-1" y="-1"><path fill="#fff" d="M225 372h10v10h-10z"/><path d="M231.473 377.203l2.914 3.046a.982.982 0 0 1 0 1.345.882.882 0 0 1-1.286 0l-2.914-3.046-2.915 3.046a.882.882 0 0 1-1.286 0 .982.982 0 0 1 0-1.345l2.914-3.046-2.914-3.045a.982.982 0 0 1 0-1.345.882.882 0 0 1 1.286 0l2.915 3.046 2.914-3.046a.882.882 0 0 1 1.286 0 .982.982 0 0 1 0 1.345z"/></mask><filter id="3rgem" width="40" height="43" x="210" y="357" filterUnits="userSpaceOnUse"><feOffset dy="3" in="SourceGraphic" result="FeOffset1141Out"/><feGaussianBlur in="FeOffset1141Out" result="FeGaussianBlur1142Out" stdDeviation="2 2"/></filter><mask id="3rgep" width="2" height="2" x="-1" y="-1"><path fill="#fff" d="M230 84h10v11h-10z"/><path d="M236.464 89.392l2.915 3.046a.982.982 0 0 1 0 1.345.883.883 0 0 1-1.287 0l-2.914-3.046-2.914 3.046a.883.883 0 0 1-1.287 0 .982.982 0 0 1 0-1.345l2.914-3.046-2.914-3.045a.982.982 0 0 1 0-1.345.881.881 0 0 1 1.287 0l2.914 3.046 2.914-3.046a.881.881 0 0 1 1.287 0 .982.982 0 0 1 0 1.345z"/></mask><filter id="3rgeo" width="40" height="44" x="215" y="69" filterUnits="userSpaceOnUse"><feOffset dy="3" in="SourceGraphic" result="FeOffset1157Out"/><feGaussianBlur in="FeOffset1157Out" result="FeGaussianBlur1158Out" stdDeviation="2 2"/></filter><mask id="3rger" width="2" height="2" x="-1" y="-1"><path fill="#fff" d="M120 609h9v11h-9z"/><path d="M125.742 614.594l2.914 3.046a.982.982 0 0 1 0 1.345.881.881 0 0 1-1.286 0l-2.915-3.046-2.914 3.046a.881.881 0 0 1-1.287 0 .982.982 0 0 1 0-1.345l2.915-3.046-2.915-3.046a.982.982 0 0 1 0-1.345.882.882 0 0 1 1.287 0l2.914 3.046 2.915-3.046a.882.882 0 0 1 1.286 0 .982.982 0 0 1 0 1.345z"/></mask><filter id="3rgeq" width="39" height="44" x="105" y="594" filterUnits="userSpaceOnUse"><feOffset dy="3" in="SourceGraphic" result="FeOffset1173Out"/><feGaussianBlur in="FeOffset1173Out" result="FeGaussianBlur1174Out" stdDeviation="2 2"/></filter></defs><g><g><path fill="none" stroke="#ececec" stroke-miterlimit="20" stroke-width="2" d="M44.802 576.803v0S76.085 474 93.502 435.758c17.418-38.24 41.263-67.356 82.645-99.012 41.381-31.655 60.898-103.625-8.117-190.551C99.015 59.27 48.02 34.34 35.947 25.7" clip-path="url(&quot;#3rgea&quot;)"/></g><g><path fill="none" stroke="#ececec" stroke-miterlimit="20" stroke-width="2" d="M42.588 675.815v0s21.104.79 47.225-97.144c26.121-97.933 38.712-125.108 58.294-160.66 19.581-35.552 40.534-57.764 68.624-77.528 28.09-19.764 74.285-77.494 5.903-178.408C154.252 61.16 30.705-15.277 10.12 19.16" clip-path="url(&quot;#3rgeb&quot;)"/></g><g><g filter="url(#3rgec)"><path fill="none" d="M147.328 220.937c7.43 0 13.453 6.198 13.453 13.844 0 7.646-6.023 13.844-13.453 13.844s-13.453-6.198-13.453-13.844c0-7.646 6.023-13.844 13.453-13.844z" mask="url(&quot;#3rged&quot;)"/><path fill="#fe3e57" fill-opacity=".4" d="M147.328 220.937c7.43 0 13.453 6.198 13.453 13.844 0 7.646-6.023 13.844-13.453 13.844s-13.453-6.198-13.453-13.844c0-7.646 6.023-13.844 13.453-13.844z"/></g><path fill="none" stroke="#fe3e57" stroke-miterlimit="20" stroke-width="4" d="M147.328 220.937c7.43 0 13.453 6.198 13.453 13.844 0 7.646-6.023 13.844-13.453 13.844s-13.453-6.198-13.453-13.844c0-7.646 6.023-13.844 13.453-13.844z" clip-path="url(&quot;#3rgee&quot;)"/></g><g><g filter="url(#3rgef)"><path fill="none" d="M176.281 478.187a4.227 4.227 0 0 1 4.219 4.235 4.227 4.227 0 0 1-4.219 4.234 4.227 4.227 0 0 1-4.219-4.234 4.226 4.226 0 0 1 4.22-4.235z" mask="url(&quot;#3rgeg&quot;)"/><path fill="#34c3ff" fill-opacity=".4" d="M176.281 478.187a4.227 4.227 0 0 1 4.219 4.235 4.227 4.227 0 0 1-4.219 4.234 4.227 4.227 0 0 1-4.219-4.234 4.226 4.226 0 0 1 4.22-4.235z"/></g><path fill="none" stroke="#34c3ff" stroke-miterlimit="20" stroke-width="4" d="M176.281 478.187a4.227 4.227 0 0 1 4.219 4.235 4.227 4.227 0 0 1-4.219 4.234 4.227 4.227 0 0 1-4.219-4.234 4.226 4.226 0 0 1 4.22-4.235z" clip-path="url(&quot;#3rgeh&quot;)"/></g><g><g filter="url(#3rgei)"><path fill="none" d="M107.04 138.164l2.915 3.047a.981.981 0 0 1 0 1.344.881.881 0 0 1-1.287 0l-2.914-3.046-2.914 3.046a.881.881 0 0 1-1.287 0 .981.981 0 0 1 0-1.344l2.915-3.047-2.915-3.046a.982.982 0 0 1 0-1.345.883.883 0 0 1 1.287 0l2.914 3.047 2.914-3.047a.883.883 0 0 1 1.287 0 .982.982 0 0 1 0 1.345z" mask="url(&quot;#3rgej&quot;)"/><path fill="#34c3ff" fill-opacity=".4" d="M107.04 138.164l2.915 3.047a.981.981 0 0 1 0 1.344.881.881 0 0 1-1.287 0l-2.914-3.046-2.914 3.046a.881.881 0 0 1-1.287 0 .981.981 0 0 1 0-1.344l2.915-3.047-2.915-3.046a.982.982 0 0 1 0-1.345.883.883 0 0 1 1.287 0l2.914 3.047 2.914-3.047a.883.883 0 0 1 1.287 0 .982.982 0 0 1 0 1.345z"/></g><path fill="#34c3ff" d="M107.04 138.164l2.915 3.047a.981.981 0 0 1 0 1.344.881.881 0 0 1-1.287 0l-2.914-3.046-2.914 3.046a.881.881 0 0 1-1.287 0 .981.981 0 0 1 0-1.344l2.915-3.047-2.915-3.046a.982.982 0 0 1 0-1.345.883.883 0 0 1 1.287 0l2.914 3.047 2.914-3.047a.883.883 0 0 1 1.287 0 .982.982 0 0 1 0 1.345z"/></g><g><g filter="url(#3rgek)"><path fill="none" d="M101.613 333.811l-4.344-4.354 4.344-4.354 4.344 4.354z" mask="url(&quot;#3rgel&quot;)"/><path fill="#5800e4" fill-opacity=".4" d="M101.613 333.811l-4.344-4.354 4.344-4.354 4.344 4.354z"/></g><path fill="#5800e4" d="M101.613 333.811l-4.344-4.354 4.344-4.354 4.344 4.354z"/></g><g><g filter="url(#3rgem)"><path fill="none" d="M231.473 377.203l2.914 3.046a.982.982 0 0 1 0 1.345.882.882 0 0 1-1.286 0l-2.914-3.046-2.915 3.046a.882.882 0 0 1-1.286 0 .982.982 0 0 1 0-1.345l2.914-3.046-2.914-3.045a.982.982 0 0 1 0-1.345.882.882 0 0 1 1.286 0l2.915 3.046 2.914-3.046a.882.882 0 0 1 1.286 0 .982.982 0 0 1 0 1.345z" mask="url(&quot;#3rgen&quot;)"/><path fill="#ffb534" fill-opacity=".4" d="M231.473 377.203l2.914 3.046a.982.982 0 0 1 0 1.345.882.882 0 0 1-1.286 0l-2.914-3.046-2.915 3.046a.882.882 0 0 1-1.286 0 .982.982 0 0 1 0-1.345l2.914-3.046-2.914-3.045a.982.982 0 0 1 0-1.345.882.882 0 0 1 1.286 0l2.915 3.046 2.914-3.046a.882.882 0 0 1 1.286 0 .982.982 0 0 1 0 1.345z"/></g><path fill="#ffb534" d="M231.473 377.203l2.914 3.046a.982.982 0 0 1 0 1.345.882.882 0 0 1-1.286 0l-2.914-3.046-2.915 3.046a.882.882 0 0 1-1.286 0 .982.982 0 0 1 0-1.345l2.914-3.046-2.914-3.045a.982.982 0 0 1 0-1.345.882.882 0 0 1 1.286 0l2.915 3.046 2.914-3.046a.882.882 0 0 1 1.286 0 .982.982 0 0 1 0 1.345z"/></g><g><g filter="url(#3rgeo)"><path fill="none" d="M236.464 89.392l2.915 3.046a.982.982 0 0 1 0 1.345.883.883 0 0 1-1.287 0l-2.914-3.046-2.914 3.046a.883.883 0 0 1-1.287 0 .982.982 0 0 1 0-1.345l2.914-3.046-2.914-3.045a.982.982 0 0 1 0-1.345.881.881 0 0 1 1.287 0l2.914 3.046 2.914-3.046a.881.881 0 0 1 1.287 0 .982.982 0 0 1 0 1.345z" mask="url(&quot;#3rgep&quot;)"/><path fill="#ffb534" fill-opacity=".4" d="M236.464 89.392l2.915 3.046a.982.982 0 0 1 0 1.345.883.883 0 0 1-1.287 0l-2.914-3.046-2.914 3.046a.883.883 0 0 1-1.287 0 .982.982 0 0 1 0-1.345l2.914-3.046-2.914-3.045a.982.982 0 0 1 0-1.345.881.881 0 0 1 1.287 0l2.914 3.046 2.914-3.046a.881.881 0 0 1 1.287 0 .982.982 0 0 1 0 1.345z"/></g><path fill="#ffb534" d="M236.464 89.392l2.915 3.046a.982.982 0 0 1 0 1.345.883.883 0 0 1-1.287 0l-2.914-3.046-2.914 3.046a.883.883 0 0 1-1.287 0 .982.982 0 0 1 0-1.345l2.914-3.046-2.914-3.045a.982.982 0 0 1 0-1.345.881.881 0 0 1 1.287 0l2.914 3.046 2.914-3.046a.881.881 0 0 1 1.287 0 .982.982 0 0 1 0 1.345z"/></g><g><g filter="url(#3rgeq)"><path fill="none" d="M125.742 614.594l2.914 3.046a.982.982 0 0 1 0 1.345.881.881 0 0 1-1.286 0l-2.915-3.046-2.914 3.046a.881.881 0 0 1-1.287 0 .982.982 0 0 1 0-1.345l2.915-3.046-2.915-3.046a.982.982 0 0 1 0-1.345.882.882 0 0 1 1.287 0l2.914 3.046 2.915-3.046a.882.882 0 0 1 1.286 0 .982.982 0 0 1 0 1.345z" mask="url(&quot;#3rger&quot;)"/><path fill="#fe3e57" fill-opacity=".4" d="M125.742 614.594l2.914 3.046a.982.982 0 0 1 0 1.345.881.881 0 0 1-1.286 0l-2.915-3.046-2.914 3.046a.881.881 0 0 1-1.287 0 .982.982 0 0 1 0-1.345l2.915-3.046-2.915-3.046a.982.982 0 0 1 0-1.345.882.882 0 0 1 1.287 0l2.914 3.046 2.915-3.046a.882.882 0 0 1 1.286 0 .982.982 0 0 1 0 1.345z"/></g><path fill="#fe3e57" d="M125.742 614.594l2.914 3.046a.982.982 0 0 1 0 1.345.881.881 0 0 1-1.286 0l-2.915-3.046-2.914 3.046a.881.881 0 0 1-1.287 0 .982.982 0 0 1 0-1.345l2.915-3.046-2.915-3.046a.982.982 0 0 1 0-1.345.882.882 0 0 1 1.287 0l2.914 3.046 2.915-3.046a.882.882 0 0 1 1.286 0 .982.982 0 0 1 0 1.345z"/></g></g></svg>