<svg xmlns="http://www.w3.org/2000/svg" width="344" height="884" viewBox="0 0 344 884"><defs><clipPath id="1ipba"><path fill="#fff" d="M287.973 138.647s-40.74 133.564-63.422 183.246c-22.683 49.683-53.735 87.51-107.626 128.637-53.89 41.127-79.306 134.63 10.57 247.564 89.877 112.934 156.285 145.323 172.009 156.548"/></clipPath><clipPath id="1ipbb"><path fill="#fff" d="M290.856 10.01s-27.483-1.026-61.5 126.21c-34.018 127.235-50.414 162.541-75.915 208.731-25.5 46.19-52.786 75.047-89.367 100.724-36.582 25.678-96.74 100.68-7.688 231.788 89.052 131.11 249.944 230.417 276.75 185.674"/></clipPath><mask id="1ipbd" width="2" height="2" x="-1" y="-1"><path fill="#fff" d="M137 565h35v36h-35z"/><path d="M154.484 565c9.674 0 17.516 8.059 17.516 18s-7.842 18-17.516 18c-9.673 0-17.515-8.059-17.515-18s7.842-18 17.515-18z"/></mask><filter id="1ipbc" width="65" height="69" x="122" y="550" filterUnits="userSpaceOnUse"><feOffset dy="3" in="SourceGraphic" result="FeOffset1207Out"/><feGaussianBlur in="FeOffset1207Out" result="FeGaussianBlur1208Out" stdDeviation="2 2"/></filter><clipPath id="1ipbe"><path fill="#fff" d="M154.484 565c9.674 0 17.516 8.059 17.516 18s-7.842 18-17.516 18c-9.673 0-17.515-8.059-17.515-18s7.842-18 17.515-18z"/></clipPath><mask id="1ipbg" width="2" height="2" x="-1" y="-1"><path fill="#fff" d="M110 235h11v11h-11z"/><path d="M115.469 235a5.5 5.5 0 1 1 0 11 5.5 5.5 0 0 1 0-11z"/></mask><filter id="1ipbf" width="41" height="44" x="95" y="220" filterUnits="userSpaceOnUse"><feOffset dy="3" in="SourceGraphic" result="FeOffset1225Out"/><feGaussianBlur in="FeOffset1225Out" result="FeGaussianBlur1226Out" stdDeviation="2 2"/></filter><clipPath id="1ipbh"><path fill="#fff" d="M115.469 235a5.5 5.5 0 1 1 0 11 5.5 5.5 0 0 1 0-11z"/></clipPath><mask id="1ipbj" width="2" height="2" x="-1" y="-1"><path fill="#fff" d="M202 702h13v13h-13z"/><path d="M206.92 708.527l-3.795-3.957a1.273 1.273 0 0 1 0-1.747 1.15 1.15 0 0 1 1.676 0l3.795 3.957 3.795-3.957a1.15 1.15 0 0 1 1.675 0 1.273 1.273 0 0 1 0 1.747l-3.795 3.957 3.795 3.958a1.273 1.273 0 0 1 0 1.747 1.15 1.15 0 0 1-1.675 0l-3.795-3.957-3.795 3.957a1.15 1.15 0 0 1-1.676 0 1.273 1.273 0 0 1 0-1.747z"/></mask><filter id="1ipbi" width="43" height="46" x="187" y="687" filterUnits="userSpaceOnUse"><feOffset dy="3" in="SourceGraphic" result="FeOffset1243Out"/><feGaussianBlur in="FeOffset1243Out" result="FeGaussianBlur1244Out" stdDeviation="2 2"/></filter><mask id="1ipbl" width="2" height="2" x="-1" y="-1"><path fill="#fff" d="M208 454h12v12h-12z"/><path d="M213.988 454.343l5.658 5.657-5.658 5.656-5.657-5.656z"/></mask><filter id="1ipbk" width="42" height="45" x="193" y="439" filterUnits="userSpaceOnUse"><feOffset dy="3" in="SourceGraphic" result="FeOffset1259Out"/><feGaussianBlur in="FeOffset1259Out" result="FeGaussianBlur1260Out" stdDeviation="2 2"/></filter><mask id="1ipbn" width="2" height="2" x="-1" y="-1"><path fill="#fff" d="M38 371h12v13H38z"/><path d="M42.275 377.194l-3.795-3.957a1.273 1.273 0 0 1 0-1.747 1.151 1.151 0 0 1 1.675 0l3.796 3.957 3.795-3.957a1.151 1.151 0 0 1 1.675 0 1.273 1.273 0 0 1 0 1.747l-3.795 3.957 3.795 3.958a1.273 1.273 0 0 1 0 1.746 1.151 1.151 0 0 1-1.675 0l-3.795-3.957-3.796 3.957a1.151 1.151 0 0 1-1.675 0 1.273 1.273 0 0 1 0-1.746z"/></mask><filter id="1ipbm" width="42" height="46" x="23" y="356" filterUnits="userSpaceOnUse"><feOffset dy="3" in="SourceGraphic" result="FeOffset1275Out"/><feGaussianBlur in="FeOffset1275Out" result="FeGaussianBlur1276Out" stdDeviation="2 2"/></filter><mask id="1ipbp" width="2" height="2" x="-1" y="-1"><path fill="#fff" d="M178 83h13v13h-13z"/><path d="M182.566 89.55l-3.795-3.958a1.273 1.273 0 0 1 0-1.747 1.15 1.15 0 0 1 1.676 0l3.795 3.957 3.795-3.957a1.15 1.15 0 0 1 1.675 0 1.273 1.273 0 0 1 0 1.747l-3.795 3.957 3.795 3.957a1.274 1.274 0 0 1 0 1.748 1.15 1.15 0 0 1-1.675 0l-3.795-3.957-3.795 3.957a1.15 1.15 0 0 1-1.676 0 1.274 1.274 0 0 1 0-1.748z"/></mask><filter id="1ipbo" width="43" height="46" x="163" y="68" filterUnits="userSpaceOnUse"><feOffset dy="3" in="SourceGraphic" result="FeOffset1291Out"/><feGaussianBlur in="FeOffset1291Out" result="FeGaussianBlur1292Out" stdDeviation="2 2"/></filter></defs><g><g><path fill="none" stroke="#ececec" stroke-miterlimit="20" stroke-width="2" d="M287.973 138.647v0s-40.74 133.564-63.422 183.246c-22.683 49.683-53.735 87.51-107.626 128.637-53.89 41.127-79.306 134.63 10.57 247.564 89.877 112.934 156.285 145.323 172.009 156.548" clip-path="url(&quot;#1ipba&quot;)"/></g><g><path fill="none" stroke="#ececec" stroke-miterlimit="20" stroke-width="2" d="M290.856 10.01v0s-27.483-1.026-61.5 126.21c-34.018 127.235-50.414 162.541-75.915 208.731-25.5 46.19-52.786 75.047-89.367 100.724-36.582 25.678-96.74 100.68-7.688 231.788 89.052 131.11 249.944 230.417 276.75 185.674" clip-path="url(&quot;#1ipbb&quot;)"/></g><g><g filter="url(#1ipbc)"><path fill="none" d="M154.484 565c9.674 0 17.516 8.059 17.516 18s-7.842 18-17.516 18c-9.673 0-17.515-8.059-17.515-18s7.842-18 17.515-18z" mask="url(&quot;#1ipbd&quot;)"/><path fill="#fe3e57" fill-opacity=".4" d="M154.484 565c9.674 0 17.516 8.059 17.516 18s-7.842 18-17.516 18c-9.673 0-17.515-8.059-17.515-18s7.842-18 17.515-18z"/></g><path fill="none" stroke="#fe3e57" stroke-miterlimit="20" stroke-width="4" d="M154.484 565c9.674 0 17.516 8.059 17.516 18s-7.842 18-17.516 18c-9.673 0-17.515-8.059-17.515-18s7.842-18 17.515-18z" clip-path="url(&quot;#1ipbe&quot;)"/></g><g><g filter="url(#1ipbf)"><path fill="none" d="M115.469 235a5.5 5.5 0 1 1 0 11 5.5 5.5 0 0 1 0-11z" mask="url(&quot;#1ipbg&quot;)"/><path fill="#34c3ff" fill-opacity=".4" d="M115.469 235a5.5 5.5 0 1 1 0 11 5.5 5.5 0 0 1 0-11z"/></g><path fill="none" stroke="#34c3ff" stroke-miterlimit="20" stroke-width="4" d="M115.469 235a5.5 5.5 0 1 1 0 11 5.5 5.5 0 0 1 0-11z" clip-path="url(&quot;#1ipbh&quot;)"/></g><g><g filter="url(#1ipbi)"><path fill="none" d="M206.92 708.527l-3.795-3.957a1.273 1.273 0 0 1 0-1.747 1.15 1.15 0 0 1 1.676 0l3.795 3.957 3.795-3.957a1.15 1.15 0 0 1 1.675 0 1.273 1.273 0 0 1 0 1.747l-3.795 3.957 3.795 3.958a1.273 1.273 0 0 1 0 1.747 1.15 1.15 0 0 1-1.675 0l-3.795-3.957-3.795 3.957a1.15 1.15 0 0 1-1.676 0 1.273 1.273 0 0 1 0-1.747z" mask="url(&quot;#1ipbj&quot;)"/><path fill="#34c3ff" fill-opacity=".4" d="M206.92 708.527l-3.795-3.957a1.273 1.273 0 0 1 0-1.747 1.15 1.15 0 0 1 1.676 0l3.795 3.957 3.795-3.957a1.15 1.15 0 0 1 1.675 0 1.273 1.273 0 0 1 0 1.747l-3.795 3.957 3.795 3.958a1.273 1.273 0 0 1 0 1.747 1.15 1.15 0 0 1-1.675 0l-3.795-3.957-3.795 3.957a1.15 1.15 0 0 1-1.676 0 1.273 1.273 0 0 1 0-1.747z"/></g><path fill="#34c3ff" d="M206.92 708.527l-3.795-3.957a1.273 1.273 0 0 1 0-1.747 1.15 1.15 0 0 1 1.676 0l3.795 3.957 3.795-3.957a1.15 1.15 0 0 1 1.675 0 1.273 1.273 0 0 1 0 1.747l-3.795 3.957 3.795 3.958a1.273 1.273 0 0 1 0 1.747 1.15 1.15 0 0 1-1.675 0l-3.795-3.957-3.795 3.957a1.15 1.15 0 0 1-1.676 0 1.273 1.273 0 0 1 0-1.747z"/></g><g><g filter="url(#1ipbk)"><path fill="none" d="M213.988 454.343l5.658 5.657-5.658 5.656-5.657-5.656z" mask="url(&quot;#1ipbl&quot;)"/><path fill="#5800e4" fill-opacity=".4" d="M213.988 454.343l5.658 5.657-5.658 5.656-5.657-5.656z"/></g><path fill="#5800e4" d="M213.988 454.343l5.658 5.657-5.658 5.656-5.657-5.656z"/></g><g><g filter="url(#1ipbm)"><path fill="none" d="M42.275 377.194l-3.795-3.957a1.273 1.273 0 0 1 0-1.747 1.151 1.151 0 0 1 1.675 0l3.796 3.957 3.795-3.957a1.151 1.151 0 0 1 1.675 0 1.273 1.273 0 0 1 0 1.747l-3.795 3.957 3.795 3.958a1.273 1.273 0 0 1 0 1.746 1.151 1.151 0 0 1-1.675 0l-3.795-3.957-3.796 3.957a1.151 1.151 0 0 1-1.675 0 1.273 1.273 0 0 1 0-1.746z" mask="url(&quot;#1ipbn&quot;)"/><path fill="#ffb534" fill-opacity=".4" d="M42.275 377.194l-3.795-3.957a1.273 1.273 0 0 1 0-1.747 1.151 1.151 0 0 1 1.675 0l3.796 3.957 3.795-3.957a1.151 1.151 0 0 1 1.675 0 1.273 1.273 0 0 1 0 1.747l-3.795 3.957 3.795 3.958a1.273 1.273 0 0 1 0 1.746 1.151 1.151 0 0 1-1.675 0l-3.795-3.957-3.796 3.957a1.151 1.151 0 0 1-1.675 0 1.273 1.273 0 0 1 0-1.746z"/></g><path fill="#ffb534" d="M42.275 377.194l-3.795-3.957a1.273 1.273 0 0 1 0-1.747 1.151 1.151 0 0 1 1.675 0l3.796 3.957 3.795-3.957a1.151 1.151 0 0 1 1.675 0 1.273 1.273 0 0 1 0 1.747l-3.795 3.957 3.795 3.958a1.273 1.273 0 0 1 0 1.746 1.151 1.151 0 0 1-1.675 0l-3.795-3.957-3.796 3.957a1.151 1.151 0 0 1-1.675 0 1.273 1.273 0 0 1 0-1.746z"/></g><g><g filter="url(#1ipbo)"><path fill="none" d="M182.566 89.55l-3.795-3.958a1.273 1.273 0 0 1 0-1.747 1.15 1.15 0 0 1 1.676 0l3.795 3.957 3.795-3.957a1.15 1.15 0 0 1 1.675 0 1.273 1.273 0 0 1 0 1.747l-3.795 3.957 3.795 3.957a1.274 1.274 0 0 1 0 1.748 1.15 1.15 0 0 1-1.675 0l-3.795-3.957-3.795 3.957a1.15 1.15 0 0 1-1.676 0 1.274 1.274 0 0 1 0-1.748z" mask="url(&quot;#1ipbp&quot;)"/><path fill="#fe3e57" fill-opacity=".4" d="M182.566 89.55l-3.795-3.958a1.273 1.273 0 0 1 0-1.747 1.15 1.15 0 0 1 1.676 0l3.795 3.957 3.795-3.957a1.15 1.15 0 0 1 1.675 0 1.273 1.273 0 0 1 0 1.747l-3.795 3.957 3.795 3.957a1.274 1.274 0 0 1 0 1.748 1.15 1.15 0 0 1-1.675 0l-3.795-3.957-3.795 3.957a1.15 1.15 0 0 1-1.676 0 1.274 1.274 0 0 1 0-1.748z"/></g><path fill="#fe3e57" d="M182.566 89.55l-3.795-3.958a1.273 1.273 0 0 1 0-1.747 1.15 1.15 0 0 1 1.676 0l3.795 3.957 3.795-3.957a1.15 1.15 0 0 1 1.675 0 1.273 1.273 0 0 1 0 1.747l-3.795 3.957 3.795 3.957a1.274 1.274 0 0 1 0 1.748 1.15 1.15 0 0 1-1.675 0l-3.795-3.957-3.795 3.957a1.15 1.15 0 0 1-1.676 0 1.274 1.274 0 0 1 0-1.748z"/></g></g></svg>