<svg xmlns="http://www.w3.org/2000/svg" width="65" height="52" viewBox="0 0 65 52"><g><g><path fill="#fe3e57" d="M1.75 0C2.716 0 3.5.776 3.5 1.734s-.784 1.734-1.75 1.734C.783 3.468 0 2.692 0 1.734S.783 0 1.75 0zm12.297 0c.975 0 1.765.776 1.765 1.734s-.79 1.734-1.765 1.734c-.975 0-1.766-.776-1.766-1.734S13.071 0 14.047 0zm12.297 0c.966 0 1.75.776 1.75 1.734s-.784 1.734-1.75 1.734c-.967 0-1.75-.776-1.75-1.734S25.377 0 26.344 0zm12.312 0c.967 0 1.75.776 1.75 1.734s-.783 1.734-1.75 1.734c-.966 0-1.75-.776-1.75-1.734S37.69 0 38.656 0zm12.297 0c.975 0 1.766.776 1.766 1.734s-.79 1.734-1.766 1.734c-.975 0-1.766-.776-1.766-1.734S49.977 0 50.953 0zM63.25 0C64.216 0 65 .776 65 1.734s-.784 1.734-1.75 1.734c-.967 0-1.75-.776-1.75-1.734S62.283 0 63.25 0zM1.75 12.125c.966 0 1.75.776 1.75 1.734s-.784 1.735-1.75 1.735c-.967 0-1.75-.777-1.75-1.735 0-.958.783-1.734 1.75-1.734zm12.297 0c.975 0 1.765.776 1.765 1.734s-.79 1.735-1.765 1.735c-.975 0-1.766-.777-1.766-1.735 0-.958.79-1.734 1.766-1.734zm12.297 0c.966 0 1.75.776 1.75 1.734s-.784 1.735-1.75 1.735c-.967 0-1.75-.777-1.75-1.735 0-.958.783-1.734 1.75-1.734zm12.312 0c.967 0 1.75.776 1.75 1.734s-.783 1.735-1.75 1.735c-.966 0-1.75-.777-1.75-1.735 0-.958.784-1.734 1.75-1.734zm12.297 0c.975 0 1.766.776 1.766 1.734s-.79 1.735-1.766 1.735c-.975 0-1.766-.777-1.766-1.735 0-.958.79-1.734 1.766-1.734zm12.297 0c.966 0 1.75.776 1.75 1.734s-.784 1.735-1.75 1.735c-.967 0-1.75-.777-1.75-1.735 0-.958.783-1.734 1.75-1.734zM1.75 24.28c.966 0 1.75.77 1.75 1.719 0 .95-.784 1.719-1.75 1.719-.967 0-1.75-.77-1.75-1.72 0-.948.783-1.718 1.75-1.718zm12.297 0c.975 0 1.765.77 1.765 1.719 0 .95-.79 1.719-1.765 1.719-.975 0-1.766-.77-1.766-1.72 0-.948.79-1.718 1.766-1.718zm12.297 0c.966 0 1.75.77 1.75 1.719 0 .95-.784 1.719-1.75 1.719-.967 0-1.75-.77-1.75-1.72 0-.948.783-1.718 1.75-1.718zm12.312 0c.967 0 1.75.77 1.75 1.719 0 .95-.783 1.719-1.75 1.719-.966 0-1.75-.77-1.75-1.72 0-.948.784-1.718 1.75-1.718zm12.297 0c.975 0 1.766.77 1.766 1.719 0 .95-.79 1.719-1.766 1.719-.975 0-1.766-.77-1.766-1.72 0-.948.79-1.718 1.766-1.718zm12.297 0c.966 0 1.75.77 1.75 1.719 0 .95-.784 1.719-1.75 1.719-.967 0-1.75-.77-1.75-1.72 0-.948.783-1.718 1.75-1.718zM1.75 36.406c.966 0 1.75.777 1.75 1.734 0 .958-.784 1.735-1.75 1.735-.967 0-1.75-.777-1.75-1.735 0-.957.783-1.734 1.75-1.734zm12.297 0c.975 0 1.765.777 1.765 1.734 0 .958-.79 1.735-1.765 1.735-.975 0-1.766-.777-1.766-1.735 0-.957.79-1.734 1.766-1.734zm12.297 0c.966 0 1.75.777 1.75 1.734 0 .958-.784 1.735-1.75 1.735-.967 0-1.75-.777-1.75-1.735 0-.957.783-1.734 1.75-1.734zm12.312 0c.967 0 1.75.777 1.75 1.734 0 .958-.783 1.735-1.75 1.735-.966 0-1.75-.777-1.75-1.735 0-.957.784-1.734 1.75-1.734zm12.297 0c.975 0 1.766.777 1.766 1.734 0 .958-.79 1.735-1.766 1.735-.975 0-1.766-.777-1.766-1.735 0-.957.79-1.734 1.766-1.734zm12.297 0c.966 0 1.75.777 1.75 1.734 0 .958-.784 1.735-1.75 1.735-.967 0-1.75-.777-1.75-1.735 0-.957.783-1.734 1.75-1.734zM1.75 48.531c.966 0 1.75.777 1.75 1.734C3.5 51.223 2.716 52 1.75 52 .783 52 0 51.223 0 50.265c0-.957.783-1.734 1.75-1.734zm12.297 0c.975 0 1.765.777 1.765 1.734 0 .958-.79 1.735-1.765 1.735-.975 0-1.766-.777-1.766-1.735 0-.957.79-1.734 1.766-1.734zm12.297 0c.966 0 1.75.777 1.75 1.734 0 .958-.784 1.735-1.75 1.735-.967 0-1.75-.777-1.75-1.735 0-.957.783-1.734 1.75-1.734zm12.312 0c.967 0 1.75.777 1.75 1.734 0 .958-.783 1.735-1.75 1.735-.966 0-1.75-.777-1.75-1.735 0-.957.784-1.734 1.75-1.734zm12.297 0c.975 0 1.766.777 1.766 1.734 0 .958-.79 1.735-1.766 1.735-.975 0-1.766-.777-1.766-1.735 0-.957.79-1.734 1.766-1.734zm12.297 0c.966 0 1.75.777 1.75 1.734 0 .958-.784 1.735-1.75 1.735-.967 0-1.75-.777-1.75-1.735 0-.957.783-1.734 1.75-1.734z"/></g></g></svg>