<svg xmlns="http://www.w3.org/2000/svg" width="120" height="121" viewBox="0 0 120 121"><g><g><path fill="#ffb534" d="M59.989 120.994c-.375 0-.748-.004-1.12-.01a.592.592 0 1 1 .022-1.184c1.347.025 2.717.004 4.066-.063a.584.584 0 0 1 .615.561.59.59 0 0 1-.557.62c-1.002.05-2.02.076-3.026.076zm-5.21-.228c-.017 0-.034 0-.051-.002a60.18 60.18 0 0 1-4.116-.504.592.592 0 0 1 .182-1.17c1.333.211 2.69.378 4.036.496a.59.59 0 0 1 .533.64.589.589 0 0 1-.584.54zm12.298-.193a.589.589 0 0 1-.583-.522.59.59 0 0 1 .514-.658c1.343-.16 2.694-.37 4.018-.624a.585.585 0 0 1 .686.471.59.59 0 0 1-.467.692c-1.35.258-2.73.472-4.099.637a.687.687 0 0 1-.07.004zm-20.406-1.09a.591.591 0 0 1-.131-.015 59.165 59.165 0 0 1-4.008-1.074.592.592 0 0 1 .34-1.132c1.29.394 2.613.749 3.93 1.053a.591.591 0 0 1-.13 1.168zm28.468-.454a.587.587 0 0 1-.566-.441.591.591 0 0 1 .418-.723 58.547 58.547 0 0 0 3.893-1.18c.309-.103.64.061.745.37a.593.593 0 0 1-.368.751c-1.305.446-2.641.85-3.972 1.204-.05.013-.1.02-.15.02zm-36.328-1.95a.58.58 0 0 1-.21-.04 59.344 59.344 0 0 1-3.825-1.627.594.594 0 0 1-.286-.786.584.584 0 0 1 .78-.288 58.724 58.724 0 0 0 3.75 1.595.593.593 0 0 1-.209 1.146zm44.097-.703a.594.594 0 0 1-.226-1.138 58.676 58.676 0 0 0 3.69-1.71.585.585 0 0 1 .787.263.594.594 0 0 1-.26.794 59.983 59.983 0 0 1-3.765 1.745.578.578 0 0 1-.226.046zm-51.552-2.782a.59.59 0 0 1-.282-.073 60.306 60.306 0 0 1-3.564-2.145.595.595 0 0 1-.175-.818.584.584 0 0 1 .812-.177 58.748 58.748 0 0 0 3.493 2.103.595.595 0 0 1 .231.804.587.587 0 0 1-.515.306zm58.88-.93a.585.585 0 0 1-.505-.29.595.595 0 0 1 .205-.812 58.34 58.34 0 0 0 3.423-2.208.583.583 0 0 1 .817.15.595.595 0 0 1-.15.824 60.286 60.286 0 0 1-3.491 2.253.582.582 0 0 1-.299.082zm-65.782-3.558a.576.576 0 0 1-.351-.117 60.354 60.354 0 0 1-3.236-2.618.595.595 0 0 1-.062-.834.583.583 0 0 1 .827-.063 58.82 58.82 0 0 0 3.174 2.567c.26.196.313.567.118.828a.583.583 0 0 1-.47.237zm72.535-1.14a.582.582 0 0 1-.46-.222.595.595 0 0 1 .094-.832 59.232 59.232 0 0 0 3.091-2.663c.24-.22.61-.204.83.037a.595.595 0 0 1-.037.836c-1.019.94-2.08 1.854-3.153 2.716a.585.585 0 0 1-.365.129zm-78.76-4.258a.585.585 0 0 1-.412-.17 61.372 61.372 0 0 1-2.849-3.04.595.595 0 0 1 .052-.835.584.584 0 0 1 .829.053 60.066 60.066 0 0 0 2.793 2.98.595.595 0 0 1-.412 1.012zm84.814-1.33a.583.583 0 0 1-.405-.163.596.596 0 0 1-.02-.837c.93-.985 1.839-2.016 2.7-3.066a.584.584 0 0 1 .827-.078c.25.21.284.582.077.834a61.01 61.01 0 0 1-2.754 3.127.584.584 0 0 1-.425.183zM12.8 97.502a.585.585 0 0 1-.467-.231 61.572 61.572 0 0 1-2.407-3.402.595.595 0 0 1 .165-.82.583.583 0 0 1 .813.165 60.206 60.206 0 0 0 2.361 3.337c.198.26.149.63-.109.83a.582.582 0 0 1-.356.122zm95.48-1.498a.584.584 0 0 1-.342-.111.595.595 0 0 1-.135-.826 59.883 59.883 0 0 0 2.258-3.412.584.584 0 0 1 .809-.192c.275.172.36.536.19.815a61.209 61.209 0 0 1-2.303 3.479.584.584 0 0 1-.478.247zM8.27 90.607a.586.586 0 0 1-.511-.3 60.55 60.55 0 0 1-1.919-3.702.594.594 0 0 1 .275-.79.584.584 0 0 1 .783.278 59.98 59.98 0 0 0 1.882 3.63.594.594 0 0 1-.51.884zm104.331-1.646a.594.594 0 0 1-.519-.868 59.775 59.775 0 0 0 1.77-3.694.587.587 0 1 1 1.075.477 60.928 60.928 0 0 1-1.806 3.769.587.587 0 0 1-.52.316zM4.726 83.153a.587.587 0 0 1-.546-.374 61.244 61.244 0 0 1-1.393-3.938.587.587 0 1 1 1.119-.36c.41 1.3.87 2.599 1.366 3.861a.593.593 0 0 1-.546.811zm111.19-1.772a.593.593 0 0 1-.552-.793c.456-1.277.874-2.59 1.243-3.903a.587.587 0 1 1 1.129.322 59.944 59.944 0 0 1-1.268 3.982.588.588 0 0 1-.552.392zM2.239 75.266a.588.588 0 0 1-.57-.452A60.594 60.594 0 0 1 .83 70.72a.592.592 0 0 1 .48-.683.588.588 0 0 1 .677.484c.228 1.345.504 2.695.821 4.014a.592.592 0 0 1-.57.731zm115.914-1.848a.592.592 0 0 1-.575-.713c.276-1.333.51-2.691.694-4.038a.582.582 0 0 1 .661-.506.59.59 0 0 1 .501.668 60.894 60.894 0 0 1-.708 4.118.587.587 0 0 1-.573.47zM.86 67.109a.589.589 0 0 1-.584-.532 61.512 61.512 0 0 1-.27-4.172.59.59 0 0 1 .568-.609.586.586 0 0 1 .605.573c.042 1.359.13 2.735.265 4.09a.59.59 0 0 1-.584.65zm118.413-1.888l-.04-.001a.59.59 0 0 1-.547-.63 60.984 60.984 0 0 0 .023-7.848.59.59 0 0 1 .549-.627.582.582 0 0 1 .622.554 62.166 62.166 0 0 1-.022 8.001.588.588 0 0 1-.585.551zM.607 58.839H.584a.59.59 0 0 1-.564-.614c.05-1.39.15-2.793.294-4.169a.591.591 0 0 1 .645-.527.59.59 0 0 1 .522.651 61.277 61.277 0 0 0-.289 4.09.588.588 0 0 1-.585.569zm118.292-5.662a.589.589 0 0 1-.581-.514 60.052 60.052 0 0 0-.67-4.043.591.591 0 0 1 .457-.698.585.585 0 0 1 .692.462 60.59 60.59 0 0 1 .684 4.124.59.59 0 0 1-.582.669zM1.47 50.61a.59.59 0 0 1-.578-.695c.24-1.367.53-2.742.861-4.089a.584.584 0 0 1 .711-.43c.315.079.507.4.429.717a59.815 59.815 0 0 0-.845 4.009.588.588 0 0 1-.578.488zm115.794-5.54a.588.588 0 0 1-.565-.435 59.122 59.122 0 0 0-1.22-3.91.593.593 0 0 1 .358-.756.586.586 0 0 1 .749.361c.46 1.312.878 2.654 1.245 3.99a.592.592 0 0 1-.567.75zM3.454 42.581a.592.592 0 0 1-.559-.775 61.391 61.391 0 0 1 1.418-3.935.587.587 0 1 1 1.09.442 59.706 59.706 0 0 0-1.391 3.858c-.08.25-.31.41-.558.41zm111.08-5.31a.588.588 0 0 1-.54-.357 59.355 59.355 0 0 0-1.743-3.698.594.594 0 0 1 .25-.798.585.585 0 0 1 .792.253 60.83 60.83 0 0 1 1.779 3.773.594.594 0 0 1-.538.827zM6.527 34.897a.594.594 0 0 1-.527-.85 61.133 61.133 0 0 1 1.944-3.697.586.586 0 0 1 .802-.218c.281.163.378.525.216.808a59.747 59.747 0 0 0-1.907 3.625.586.586 0 0 1-.528.332zm104.23-4.964a.586.586 0 0 1-.501-.284 59.896 59.896 0 0 0-2.235-3.423.595.595 0 0 1 .14-.825.583.583 0 0 1 .817.14 60.503 60.503 0 0 1 2.28 3.491.594.594 0 0 1-.5.9zM10.626 27.72a.58.58 0 0 1-.326-.1.595.595 0 0 1-.16-.821 60.338 60.338 0 0 1 2.43-3.39.583.583 0 0 1 .824-.104c.256.2.303.572.104.83a59.265 59.265 0 0 0-2.384 3.323.586.586 0 0 1-.488.262zm95.388-4.536a.584.584 0 0 1-.455-.217 59.993 59.993 0 0 0-2.68-3.083.595.595 0 0 1 .025-.836.583.583 0 0 1 .83.026 61.193 61.193 0 0 1 2.734 3.144.595.595 0 0 1-.083.832.578.578 0 0 1-.37.134zm-90.35-2.002a.58.58 0 0 1-.391-.15.595.595 0 0 1-.047-.836 60.964 60.964 0 0 1 2.868-3.02.584.584 0 0 1 .83.01.595.595 0 0 1-.01.836 59.71 59.71 0 0 0-2.812 2.962.586.586 0 0 1-.438.198zm84.729-4.03a.582.582 0 0 1-.4-.157 59.487 59.487 0 0 0-3.075-2.684.595.595 0 0 1-.088-.832.584.584 0 0 1 .825-.09 60.85 60.85 0 0 1 3.137 2.738.595.595 0 0 1 .031.836.584.584 0 0 1-.43.19zM21.54 15.405a.594.594 0 0 1-.38-1.043 60.38 60.38 0 0 1 3.25-2.594.584.584 0 0 1 .82.124.594.594 0 0 1-.123.827 59.265 59.265 0 0 0-3.188 2.545.58.58 0 0 1-.38.141zM94 11.954a.576.576 0 0 1-.336-.108 59.264 59.264 0 0 0-3.412-2.233.594.594 0 0 1-.201-.812.583.583 0 0 1 .805-.202 59.625 59.625 0 0 1 3.48 2.278c.266.187.331.556.145.824a.585.585 0 0 1-.481.252zm-65.856-1.46a.585.585 0 0 1-.496-.274.595.595 0 0 1 .18-.817 60.506 60.506 0 0 1 3.572-2.119.585.585 0 0 1 .796.238.594.594 0 0 1-.235.803 58.653 58.653 0 0 0-3.503 2.077.58.58 0 0 1-.314.093zM86.96 7.689a.572.572 0 0 1-.267-.065 58.941 58.941 0 0 0-3.687-1.737.593.593 0 0 1-.31-.776.584.584 0 0 1 .77-.313c1.27.545 2.535 1.141 3.761 1.773a.594.594 0 0 1-.267 1.118zM35.353 6.55a.586.586 0 0 1-.535-.346.594.594 0 0 1 .29-.784 59.494 59.494 0 0 1 3.827-1.6.585.585 0 0 1 .755.347.594.594 0 0 1-.344.762 57.71 57.71 0 0 0-3.75 1.568.581.581 0 0 1-.243.053zM79.4 4.445a.588.588 0 0 1-.192-.033 58.09 58.09 0 0 0-3.886-1.203.592.592 0 0 1 .305-1.143 59.51 59.51 0 0 1 3.964 1.227.593.593 0 0 1-.191 1.152zm-36.366-.796a.592.592 0 0 1-.167-1.159c1.32-.395 2.67-.749 4.013-1.05a.592.592 0 0 1 .256 1.155 58.29 58.29 0 0 0-3.935 1.03.593.593 0 0 1-.167.024zm28.441-1.356a.58.58 0 0 1-.113-.01 58.569 58.569 0 0 0-4.015-.649.59.59 0 0 1-.51-.66.587.587 0 0 1 .656-.514c1.365.172 2.743.395 4.094.66a.59.59 0 0 1 .463.695.589.589 0 0 1-.575.478zM51.044 1.85a.592.592 0 0 1-.087-1.177 59.79 59.79 0 0 1 4.118-.48.59.59 0 0 1 .633.542.59.59 0 0 1-.538.637c-1.348.11-2.707.269-4.038.472a.657.657 0 0 1-.088.006zm12.287-.58l-.033-.002a58.989 58.989 0 0 0-4.065-.087h-.008a.59.59 0 0 1-.587-.585.59.59 0 0 1 .58-.599 60.237 60.237 0 0 1 4.145.09.59.59 0 0 1 .553.623.589.589 0 0 1-.585.56zM59.99 108.772c-1.257 0-2.526-.05-3.772-.147a.59.59 0 0 1-.539-.636.58.58 0 0 1 .631-.544c1.215.095 2.453.144 3.679.144l.374-.002h.004a.59.59 0 0 1 .587.587.59.59 0 0 1-.583.596zm4.477-.211a.59.59 0 0 1-.054-1.18 46.62 46.62 0 0 0 4.016-.56.592.592 0 0 1 .21 1.165c-1.354.25-2.74.442-4.117.572a.65.65 0 0 1-.055.003zm-12.278-.435a.535.535 0 0 1-.096-.008 47.155 47.155 0 0 1-4.067-.865.59.59 0 1 1 .292-1.146c1.301.337 2.636.621 3.967.844a.59.59 0 0 1 .483.68.588.588 0 0 1-.579.495zm20.349-1.05a.592.592 0 0 1-.155-1.163c1.3-.36 2.598-.78 3.86-1.253a.587.587 0 0 1 .754.349.593.593 0 0 1-.347.76 47.46 47.46 0 0 1-3.956 1.286.58.58 0 0 1-.156.021zm-28.294-1.01a.583.583 0 0 1-.196-.033c-1.302-.464-2.6-.991-3.858-1.568a.593.593 0 0 1-.291-.783.584.584 0 0 1 .777-.294 46.461 46.461 0 0 0 3.763 1.528.593.593 0 0 1-.195 1.15zm35.984-1.867a.593.593 0 0 1-.252-1.126 47.175 47.175 0 0 0 3.584-1.91.584.584 0 0 1 .803.21.595.595 0 0 1-.21.81 47.737 47.737 0 0 1-3.674 1.959.583.583 0 0 1-.251.057zm-43.457-1.557a.58.58 0 0 1-.288-.077 48.19 48.19 0 0 1-3.53-2.217.595.595 0 0 1-.152-.822.585.585 0 0 1 .817-.154 47.002 47.002 0 0 0 3.442 2.163.594.594 0 0 1-.289 1.107zm50.536-2.622a.594.594 0 0 1-.34-1.075c1.1-.785 2.177-1.63 3.204-2.506a.583.583 0 0 1 .827.07c.21.249.179.622-.068.833a48.488 48.488 0 0 1-3.285 2.569.58.58 0 0 1-.338.109zM30 97.967a.583.583 0 0 1-.372-.134 48.536 48.536 0 0 1-3.097-2.797.595.595 0 0 1-.01-.837.584.584 0 0 1 .83-.01 46.756 46.756 0 0 0 3.022 2.729c.25.207.287.58.081.832a.585.585 0 0 1-.454.217zm63.565-3.294c-.15 0-.3-.057-.413-.172a.595.595 0 0 1-.004-.837 47.408 47.408 0 0 0 2.73-3.024.583.583 0 0 1 .827-.075c.249.21.283.582.075.833a48.552 48.552 0 0 1-2.798 3.1.585.585 0 0 1-.417.175zM24.13 92.187a.582.582 0 0 1-.444-.206 48.691 48.691 0 0 1-2.575-3.29.595.595 0 0 1 .133-.827c.264-.19.63-.13.82.134a47.62 47.62 0 0 0 2.511 3.211.594.594 0 0 1-.062.834.58.58 0 0 1-.383.144zm74.691-3.867a.582.582 0 0 1-.335-.106.595.595 0 0 1-.146-.824 47.535 47.535 0 0 0 2.173-3.454.585.585 0 0 1 .802-.218c.28.164.378.525.216.808a48.658 48.658 0 0 1-2.228 3.54.585.585 0 0 1-.482.254zm-79.486-2.844a.586.586 0 0 1-.505-.288 48.783 48.783 0 0 1-1.971-3.689.593.593 0 0 1 .272-.79.585.585 0 0 1 .784.275 47.482 47.482 0 0 0 1.924 3.598.594.594 0 0 1-.504.894zm83.577-4.33a.594.594 0 0 1-.532-.84 47.296 47.296 0 0 0 1.546-3.781.586.586 0 0 1 .752-.355c.305.111.462.45.352.758a48.593 48.593 0 0 1-1.585 3.877.587.587 0 0 1-.533.341zm-87.15-3.112a.587.587 0 0 1-.55-.382c-.49-1.301-.93-2.64-1.305-3.979a.593.593 0 0 1 .404-.73.59.59 0 0 1 .725.408 47.276 47.276 0 0 0 1.274 3.88.593.593 0 0 1-.549.803zm89.944-4.666a.592.592 0 0 1-.568-.744c.345-1.308.638-2.651.87-3.993a.588.588 0 1 1 1.156.203 48.63 48.63 0 0 1-.891 4.094.588.588 0 0 1-.567.44zm-92.18-3.293a.588.588 0 0 1-.576-.481 49.171 49.171 0 0 1-.6-4.145.59.59 0 0 1 .524-.65.59.59 0 0 1 .643.528c.138 1.356.335 2.717.586 4.046a.591.591 0 0 1-.577.702zm93.59-4.856c-.018 0-.035 0-.052-.002a.59.59 0 0 1-.534-.64 48.34 48.34 0 0 0 .15-5.591.589.589 0 0 1 .567-.61.577.577 0 0 1 .605.573 49.296 49.296 0 0 1-.153 5.73.588.588 0 0 1-.584.54zm-94.423-3.37a.59.59 0 0 1-.587-.583 49.195 49.195 0 0 1 .112-4.188c.023-.327.3-.57.626-.55a.59.59 0 0 1 .545.632 48.685 48.685 0 0 0-.109 4.087.59.59 0 0 1-.578.601h-.009zm94.268-6.417a.59.59 0 0 1-.582-.522 47.51 47.51 0 0 0-.65-4.035.588.588 0 0 1 1.15-.24c.279 1.357.503 2.749.666 4.135a.59.59 0 0 1-.584.662zm-93.694-1.834a.59.59 0 0 1-.58-.684c.215-1.375.493-2.757.825-4.108a.586.586 0 0 1 .712-.432c.314.08.506.4.428.718a47.814 47.814 0 0 0-.806 4.006.588.588 0 0 1-.58.5zm92.026-6.264a.589.589 0 0 1-.562-.421 47.35 47.35 0 0 0-1.336-3.86.593.593 0 0 1 .328-.769.585.585 0 0 1 .762.33 48.386 48.386 0 0 1 1.37 3.958.592.592 0 0 1-.562.762zm-90.047-1.762a.593.593 0 0 1-.555-.784c.448-1.315.96-2.628 1.523-3.903a.586.586 0 0 1 .775-.3c.296.133.43.482.298.782a47.025 47.025 0 0 0-1.486 3.805.588.588 0 0 1-.555.4zm87.01-5.92a.587.587 0 0 1-.525-.325 47.283 47.283 0 0 0-1.98-3.567.595.595 0 0 1 .19-.814.585.585 0 0 1 .808.192 48.63 48.63 0 0 1 2.03 3.657.594.594 0 0 1-.523.858zM18.582 38.01a.594.594 0 0 1-.513-.878 48.608 48.608 0 0 1 2.171-3.575.585.585 0 0 1 .815-.16c.269.182.34.55.158.82a47.675 47.675 0 0 0-2.117 3.489.587.587 0 0 1-.514.304zm79.36-5.392a.584.584 0 0 1-.471-.238 47.672 47.672 0 0 0-2.561-3.17.595.595 0 0 1 .049-.835.582.582 0 0 1 .828.049 48.518 48.518 0 0 1 2.625 3.25.596.596 0 0 1-.12.828.585.585 0 0 1-.35.116zm-74.776-1.47a.582.582 0 0 1-.368-.131.596.596 0 0 1-.089-.833 49.075 49.075 0 0 1 2.749-3.144.584.584 0 0 1 .83-.016c.234.226.241.6.017.836a47.285 47.285 0 0 0-2.682 3.068.585.585 0 0 1-.457.22zm69.324-4.712a.586.586 0 0 1-.404-.161 46.83 46.83 0 0 0-3.064-2.68.596.596 0 0 1-.094-.832.585.585 0 0 1 .824-.095 48.64 48.64 0 0 1 3.141 2.747c.236.224.246.6.023.836a.585.585 0 0 1-.426.185zm-63.637-1.253a.586.586 0 0 1-.442-.201.595.595 0 0 1 .055-.835 48.253 48.253 0 0 1 3.244-2.621.584.584 0 0 1 .82.127.595.595 0 0 1-.127.827 47.38 47.38 0 0 0-3.164 2.557.58.58 0 0 1-.386.146zm57.21-3.893a.581.581 0 0 1-.323-.098 46.746 46.746 0 0 0-3.476-2.107.594.594 0 0 1-.236-.803.585.585 0 0 1 .797-.237 48.056 48.056 0 0 1 3.563 2.16c.27.18.344.548.166.82a.585.585 0 0 1-.49.265zm-50.592-.996a.594.594 0 0 1-.306-1.097 47.837 47.837 0 0 1 3.643-2.017.584.584 0 0 1 .786.268.594.594 0 0 1-.266.793 46.387 46.387 0 0 0-3.553 1.968.586.586 0 0 1-.304.085zm43.38-2.954a.575.575 0 0 1-.233-.05 45.921 45.921 0 0 0-3.786-1.466.593.593 0 0 1-.37-.75.588.588 0 0 1 .742-.373c1.312.443 2.618.948 3.883 1.504.297.13.433.48.304.78a.587.587 0 0 1-.54.355zm-36.027-.707a.594.594 0 0 1-.213-1.143 47.76 47.76 0 0 1 3.936-1.35.593.593 0 0 1 .329 1.137 45.71 45.71 0 0 0-3.838 1.316.584.584 0 0 1-.214.04zm28.248-1.921a.576.576 0 0 1-.138-.016 46.404 46.404 0 0 0-3.98-.78.59.59 0 0 1-.494-.673.589.589 0 0 1 .668-.498c1.367.206 2.74.476 4.08.8a.591.591 0 0 1-.136 1.167zm-20.373-.397a.588.588 0 0 1-.575-.476.59.59 0 0 1 .46-.696 47.925 47.925 0 0 1 4.11-.639.59.59 0 0 1 .647.524.59.59 0 0 1-.52.653 46.676 46.676 0 0 0-4.007.623.596.596 0 0 1-.115.011zm12.26-.826l-.037-.001a47.8 47.8 0 0 0-4.055-.078.598.598 0 0 1-.6-.578.59.59 0 0 1 .572-.605 48.653 48.653 0 0 1 4.155.08c.324.02.57.3.55.626a.59.59 0 0 1-.586.556zM58.222 96.81h-.03a35.943 35.943 0 0 1-4.148-.449.59.59 0 0 1-.483-.68.583.583 0 0 1 .675-.487c1.32.221 2.67.367 4.014.433a.59.59 0 0 1 .558.62.59.59 0 0 1-.586.563zm4.104-.032a.59.59 0 0 1-.586-.553.59.59 0 0 1 .548-.63 34.966 34.966 0 0 0 4.006-.498.591.591 0 1 1 .21 1.164 36.026 36.026 0 0 1-4.178.517zm-12.19-1.321a.589.589 0 0 1-.163-.023 35.747 35.747 0 0 1-3.937-1.401.594.594 0 0 1-.313-.775.585.585 0 0 1 .768-.317c1.237.524 2.518.98 3.808 1.355a.593.593 0 0 1-.163 1.16zm20.252-.165a.592.592 0 0 1-.172-1.157 34.786 34.786 0 0 0 3.785-1.416c.299-.132.643.004.773.304a.594.594 0 0 1-.301.78 35.953 35.953 0 0 1-3.913 1.463.593.593 0 0 1-.172.026zm-27.814-3.035a.58.58 0 0 1-.288-.077 36.31 36.31 0 0 1-3.51-2.277.595.595 0 0 1-.13-.826.584.584 0 0 1 .82-.13 35.073 35.073 0 0 0 3.397 2.203.595.595 0 0 1 .223.806.587.587 0 0 1-.512.301zm35.318-.285a.586.586 0 0 1-.507-.293.595.595 0 0 1 .21-.81 35.012 35.012 0 0 0 3.36-2.255.583.583 0 0 1 .821.117.595.595 0 0 1-.116.828 36.027 36.027 0 0 1-3.472 2.331.574.574 0 0 1-.296.082zm-41.944-4.58a.584.584 0 0 1-.398-.158 36.55 36.55 0 0 1-2.9-3.024.594.594 0 0 1 .061-.834.582.582 0 0 1 .828.063 35.64 35.64 0 0 0 2.806 2.925.595.595 0 0 1 .034.836.583.583 0 0 1-.431.192zm48.491-.39a.58.58 0 0 1-.425-.184.595.595 0 0 1 .02-.836c.973-.932 1.901-1.931 2.762-2.97a.584.584 0 0 1 .826-.076c.249.21.283.582.075.833a36.573 36.573 0 0 1-2.853 3.07.583.583 0 0 1-.405.163zM30.6 81.13a.586.586 0 0 1-.486-.26 36.55 36.55 0 0 1-2.137-3.611.595.595 0 0 1 .25-.799.585.585 0 0 1 .791.252 35.546 35.546 0 0 0 2.068 3.495.594.594 0 0 1-.485.923zm59.09-.474a.583.583 0 0 1-.32-.097.596.596 0 0 1-.17-.82 35.216 35.216 0 0 0 2.013-3.529.585.585 0 0 1 .788-.264c.29.146.407.501.262.794a36.68 36.68 0 0 1-2.08 3.648.585.585 0 0 1-.492.268zM26.818 73.8a.586.586 0 0 1-.549-.381 36.595 36.595 0 0 1-1.254-4.013.587.587 0 1 1 1.138-.29c.329 1.314.737 2.62 1.213 3.882a.593.593 0 0 1-.548.802zm66.54-.539a.59.59 0 0 1-.551-.793 35.179 35.179 0 0 0 1.151-3.902.587.587 0 1 1 1.143.27 36.34 36.34 0 0 1-1.19 4.035.588.588 0 0 1-.552.39zm-68.545-7.474a.588.588 0 0 1-.58-.514 36.872 36.872 0 0 1-.305-4.194.59.59 0 0 1 .578-.601h.009c.32 0 .582.259.587.583.02 1.354.119 2.72.294 4.058a.591.591 0 0 1-.583.668zm70.422-.572a.59.59 0 0 1-.583-.658 36.17 36.17 0 0 0 .212-5.202.59.59 0 0 1 .568-.61c.312-.02.595.245.605.572a37.332 37.332 0 0 1-.22 5.373.588.588 0 0 1-.582.525zm-70.551-7.688a.59.59 0 0 1-.585-.65c.137-1.395.356-2.793.65-4.156a.587.587 0 1 1 1.147.252 35.357 35.357 0 0 0-.629 4.02.59.59 0 0 1-.583.534zm70.4-1.722a.588.588 0 0 1-.58-.504 35.435 35.435 0 0 0-.821-3.985.592.592 0 0 1 .414-.725.585.585 0 0 1 .72.417c.36 1.35.646 2.736.849 4.12a.591.591 0 0 1-.581.677zm-68.655-6.354a.593.593 0 0 1-.555-.785c.45-1.32.983-2.63 1.585-3.894.14-.294.49-.42.783-.277a.594.594 0 0 1 .275.79 35.302 35.302 0 0 0-1.534 3.767.588.588 0 0 1-.554.4zM92.95 47.83a.587.587 0 0 1-.545-.373 35.207 35.207 0 0 0-1.711-3.683.594.594 0 0 1 .237-.802.584.584 0 0 1 .796.238 36.447 36.447 0 0 1 1.768 3.808.593.593 0 0 1-.545.812zm-62.975-5.83a.58.58 0 0 1-.313-.09.595.595 0 0 1-.183-.817 36.677 36.677 0 0 1 2.43-3.421.584.584 0 0 1 .825-.089.595.595 0 0 1 .089.832 35.263 35.263 0 0 0-2.352 3.31.584.584 0 0 1-.496.276zm59.077-1.435a.584.584 0 0 1-.481-.252 35.58 35.58 0 0 0-2.506-3.192.595.595 0 0 1 .048-.834.583.583 0 0 1 .83.048 36.513 36.513 0 0 1 2.588 3.299.594.594 0 0 1-.48.93zm-53.928-4.996a.583.583 0 0 1-.418-.177.595.595 0 0 1 .006-.837c.99-.98 2.047-1.913 3.14-2.77a.583.583 0 0 1 .824.102.595.595 0 0 1-.103.83 35.242 35.242 0 0 0-3.037 2.682.584.584 0 0 1-.412.17zm48.48-1.178a.583.583 0 0 1-.391-.15 35.279 35.279 0 0 0-3.163-2.533.594.594 0 0 1-.142-.823.583.583 0 0 1 .818-.144 36.657 36.657 0 0 1 3.268 2.617.595.595 0 0 1 .048.835.582.582 0 0 1-.438.198zm-42.012-3.897a.594.594 0 0 1-.306-1.097 36.223 36.223 0 0 1 3.685-1.973.587.587 0 0 1 .778.292.594.594 0 0 1-.288.785 34.758 34.758 0 0 0-3.564 1.907.58.58 0 0 1-.305.086zm35.307-.86a.578.578 0 0 1-.28-.073 34.714 34.714 0 0 0-3.655-1.731.593.593 0 0 1-.326-.77.584.584 0 0 1 .763-.33 36.069 36.069 0 0 1 3.779 1.792c.284.155.39.515.235.802a.587.587 0 0 1-.516.31zM49.042 27.05a.592.592 0 0 1-.181-1.155 35.7 35.7 0 0 1 4.038-1.061.591.591 0 1 1 .23 1.16c-1.317.265-2.63.61-3.906 1.027a.583.583 0 0 1-.181.03zm20.248-.494a.568.568 0 0 1-.155-.021 34.685 34.685 0 0 0-3.95-.833.591.591 0 0 1 .173-1.171c1.373.207 2.748.497 4.085.862a.592.592 0 0 1-.153 1.163zm-12.212-1.123a.59.59 0 0 1-.585-.544.59.59 0 0 1 .538-.637c.976-.08 1.967-.121 2.947-.121.424-.01.818.006 1.225.02a.59.59 0 0 1 .566.612.585.585 0 0 1-.605.57c-.394-.012-.77-.007-1.186-.019a35.082 35.082 0 0 0-2.9.119z"/></g></g></svg>