<svg xmlns="http://www.w3.org/2000/svg" width="9" height="10" viewBox="0 0 9 10"><g><g><path fill="#727272" d="M8.907 4.768a.33.33 0 0 1 0 .46l-4.338 4.66a.285.285 0 0 1-.214.101.284.284 0 0 1-.214-.1l-.465-.5a.33.33 0 0 1 0-.46l3.658-3.93-3.658-3.93a.327.327 0 0 1-.093-.23c0-.088.03-.164.093-.23L4.14.107a.286.286 0 0 1 .214-.1c.08 0 .152.034.214.1zm-3.482.23c0 .087-.03.164-.093.23L.995 9.888a.286.286 0 0 1-.214.101.285.285 0 0 1-.214-.1l-.466-.5a.332.332 0 0 1 0-.46l3.658-3.93-3.658-3.93a.328.328 0 0 1 0-.46L.567.107a.287.287 0 0 1 .214-.1c.08 0 .152.034.214.1l4.337 4.66a.328.328 0 0 1 .093.23z"/></g></g></svg>