<svg xmlns="http://www.w3.org/2000/svg" width="16" height="16" viewBox="0 0 16 16"><g><g><path fill="#727272" d="M15.77 6.857a.663.663 0 0 1 .063.925.637.637 0 0 1-.909.065l-.286-.253v6.44c0 1.085-.866 1.965-1.934 1.965H9.16v-5.274c0-.632-.505-1.146-1.128-1.146-.623 0-1.128.514-1.128 1.146V16h-3.61c-1.067 0-1.933-.88-1.933-1.965v-6.44l-.286.253a.638.638 0 0 1-.91-.065.663.663 0 0 1 .064-.925L7.998 0zm-2.421-.401l-5.35-4.722-5.35 4.722v7.578a.65.65 0 0 0 .645.655h2.32v-3.964c0-1.356 1.082-2.456 2.417-2.456 1.335 0 2.417 1.1 2.417 2.456v3.964h2.256a.65.65 0 0 0 .645-.655z"/></g></g></svg>