<svg xmlns="http://www.w3.org/2000/svg" width="20" height="20" viewBox="0 0 20 20"><g><g><path fill="#29282d" d="M19.892 19.286l-.59.589a.416.416 0 0 1-.588 0l-5.81-5.81A7.879 7.879 0 0 1 7.93 15.83c-4.366 0-7.917-3.552-7.917-7.916 0-4.366 3.551-7.917 7.917-7.917 4.365 0 7.916 3.55 7.916 7.917a7.878 7.878 0 0 1-1.765 4.973l5.81 5.81a.416.416 0 0 1 0 .589zM14.181 7.914a6.257 6.257 0 0 0-6.25-6.25 6.257 6.257 0 0 0-6.25 6.25 6.256 6.256 0 0 0 6.25 6.25 6.257 6.257 0 0 0 6.25-6.25z"/></g></g></svg>